<svg id="Capa_1" data-name="Capa 1" xmlns="http://www.w3.org/2000/svg" viewBox="0 0 260 192"><defs><style>.cls-1{fill:none;}.cls-2{fill:#00adb5;}</style></defs><title>code</title><rect class="cls-1" width="260" height="192"/><path class="cls-2" d="M968.72,653.44c.22-.24.54-.6.81-.92l3.6-4.39.87.26-1.89,2.29h0a3.06,3.06,0,0,1,2.2-.18c1.21.35,1.44,1.36.51,2.46a3.7,3.7,0,0,1-3.76,1.29c-.7-.21-1.09-.58-1.05-1.16h0l-.53.58Zm2.09-1.18a1.17,1.17,0,0,0-.16.25c-.2.51,0,1,.68,1.16a2.5,2.5,0,0,0,2.61-.95c.61-.73.62-1.5-.32-1.78a2.43,2.43,0,0,0-2,.42,3,3,0,0,0-.27.25Z" transform="translate(-868.14 -644.83)"/><path class="cls-2" d="M980.4,654.64a3.92,3.92,0,0,1-4.07,1.2c-1.32-.4-1.73-1.43-.78-2.57a3.9,3.9,0,0,1,4-1.22C981,652.47,981.34,653.52,980.4,654.64Zm-3.93-1.13c-.67.8-.55,1.58.32,1.84a2.7,2.7,0,0,0,2.67-1c.52-.62.76-1.54-.3-1.85A2.67,2.67,0,0,0,976.47,653.51Z" transform="translate(-868.14 -644.83)"/><path class="cls-2" d="M988.86,652.72l-3.78,4.46c-.28.33-.58.71-.77,1l-.81-.24.49-.65h0a3.14,3.14,0,0,1-2.3.21c-1.2-.36-1.49-1.39-.56-2.5a3.89,3.89,0,0,1,3.9-1.31c.77.23,1.06.65,1,1h0l1.87-2.21Zm-3.66,3a1.08,1.08,0,0,0,.2-.29c.23-.47,0-1-.66-1.17a2.64,2.64,0,0,0-2.69,1c-.63.74-.65,1.5.33,1.79a2.34,2.34,0,0,0,2-.39,1.85,1.85,0,0,0,.28-.28Z" transform="translate(-868.14 -644.83)"/><path class="cls-2" d="M989.26,655l-.75,2.52c-.09.28-.21.6-.31.85h0c.28-.2.63-.45,1-.68l2.87-1.87,1,.29-3.66,2.23a12.72,12.72,0,0,1-3.7,1.78,4.63,4.63,0,0,1-1.49.09l.25-.63a4.45,4.45,0,0,0,1.08-.09,4.55,4.55,0,0,0,1.4-.51.7.7,0,0,0,.21-.13.63.63,0,0,0,.09-.2l1-4Z" transform="translate(-868.14 -644.83)"/><path class="cls-2" d="M992.31,657.54a1.13,1.13,0,0,0,1.35-.31,5.06,5.06,0,0,0,.47-.67,5.7,5.7,0,0,1,.46-.67,2.21,2.21,0,0,1,2.43-.55l.23.06-.37.43-.2-.06a1.24,1.24,0,0,0-1.42.42,3.6,3.6,0,0,0-.39.57,5.29,5.29,0,0,1-.43.61,1.63,1.63,0,0,1-1.48.6h0c.41.23.48.58,0,1.07a5,5,0,0,1-.57.56,4.65,4.65,0,0,0-.55.53c-.37.42-.33.73.26.91l.2.06-.37.42-.22-.07c-.88-.26-1.3-.74-.63-1.51a7.14,7.14,0,0,1,.62-.6,5.81,5.81,0,0,0,.62-.59c.2-.24.38-.6-.38-.82Z" transform="translate(-868.14 -644.83)"/><path class="cls-2" d="M967.77,661c.3-.37.54-.67.76-1l.75.24-.43.59h0a2.72,2.72,0,0,1,2-.19c.66.2.91.66.77,1.14h0a3.52,3.52,0,0,1,.92-.3,2.68,2.68,0,0,1,1.28.08c.64.2,1.34.81.29,2.06l-1.76,2.1-.86-.27,1.69-2c.58-.69.59-1.21-.12-1.43a1.91,1.91,0,0,0-1.53.26,1.65,1.65,0,0,0-.34.31l-1.84,2.19-.85-.27,1.78-2.13c.47-.56.48-1.08-.19-1.29a2,2,0,0,0-1.61.31,1.32,1.32,0,0,0-.33.29l-1.77,2.14-.84-.27Z" transform="translate(-868.14 -644.83)"/><path class="cls-2" d="M976.56,667.08l.32-.47h0a3,3,0,0,1-1.94,0c-1-.31-1-1-.62-1.5.73-.86,2.18-1,4.07-.4l.06-.07c.25-.3.59-.87-.41-1.19a3.8,3.8,0,0,0-1.5-.13l.16-.49a4.74,4.74,0,0,1,1.88.18c1.5.47,1.23,1.34.62,2.06L978,666.46a6.76,6.76,0,0,0-.65.88Zm1.42-1.87c-1-.32-2.16-.54-2.75.15-.36.42-.14.74.31.89a2.07,2.07,0,0,0,1.69-.23.82.82,0,0,0,.22-.19Z" transform="translate(-868.14 -644.83)"/><path class="cls-2" d="M980.84,665.3c.36-.42.66-.79.92-1.14l.79.25-.57.72h0a2.59,2.59,0,0,1,2.06-.36,1.08,1.08,0,0,1,.24.1l-.54.63a1.15,1.15,0,0,0-.29-.12,2.1,2.1,0,0,0-1.93.46,2,2,0,0,0-.3.29l-1.64,1.92-.88-.28Z" transform="translate(-868.14 -644.83)"/><path class="cls-2" d="M989.45,666.57c-.25.25-.52.54-.91,1l-1.82,2.1a3.78,3.78,0,0,1-2.14,1.42,4.31,4.31,0,0,1-2.19-.15,3,3,0,0,1-1.39-.83l.65-.43a2.5,2.5,0,0,0,1.22.76,2.38,2.38,0,0,0,2.69-.74l.35-.41h0a3.09,3.09,0,0,1-2.12.09c-1.23-.4-1.47-1.44-.61-2.44a3.9,3.9,0,0,1,3.91-1.21c.88.27,1.08.75,1,1.12h0l.51-.54Zm-2.19,1.13a1,1,0,0,0,.2-.31c.17-.44,0-.9-.68-1.11a2.61,2.61,0,0,0-2.67.91c-.61.71-.62,1.45.36,1.77a2.36,2.36,0,0,0,1.85-.27,1.73,1.73,0,0,0,.37-.33Z" transform="translate(-868.14 -644.83)"/><path class="cls-2" d="M992.82,666.31a.9.9,0,0,1-1,.22c-.33-.1-.4-.35-.21-.58a1,1,0,0,1,1-.24C993,665.82,993,666.07,992.82,666.31Zm-5.08,4.35,3.15-3.64.93.29L988.66,671Z" transform="translate(-868.14 -644.83)"/><path class="cls-2" d="M992.51,668.78c.33-.37.59-.69.82-1l.83.26-.47.62h0a3.33,3.33,0,0,1,2.31-.16c.72.23,1.58.88.47,2.15l-1.92,2.18-.94-.3,1.85-2.11c.52-.59.64-1.18-.25-1.46a2.35,2.35,0,0,0-1.86.29,1.28,1.28,0,0,0-.33.29l-1.92,2.19-.93-.3Z" transform="translate(-868.14 -644.83)"/><path class="cls-2" d="M998.58,670.2a1,1,0,0,1,1.07-.28c.38.12.46.4.22.68a1,1,0,0,1-1.07.27C998.42,670.75,998.34,670.46,998.58,670.2Zm-2.36,2.68a1,1,0,0,1,1.06-.27c.38.12.46.39.22.68a1,1,0,0,1-1.06.26C996.06,673.43,996,673.14,996.22,672.88Z" transform="translate(-868.14 -644.83)"/><path class="cls-2" d="M1007.35,673.66c-1.52,1.7-3.26,2.34-4.84,1.83-1.39-.44-1.52-1.65-.09-3.29s3.34-2.27,4.81-1.82S1008.78,672.07,1007.35,673.66Zm-4-1.15c-1.15,1.29-1.23,2.2-.36,2.48s2.19-.33,3.32-1.61,1.37-2.18.36-2.49C1005.85,670.62,1004.59,671.15,1003.38,672.51Z" transform="translate(-868.14 -644.83)"/><path class="cls-2" d="M1004.82,677.33a19.57,19.57,0,0,0,2.3-1.61l1.15.26a19.81,19.81,0,0,1-2.74,1.52Zm4.1-3.89a1.1,1.1,0,0,1,1.1-.27c.4.12.48.4.22.69a1.06,1.06,0,0,1-1.09.27C1008.76,674,1008.68,673.71,1008.92,673.44Z" transform="translate(-868.14 -644.83)"/><path class="cls-2" d="M960.39,669.91c.37-.45.65-.81.9-1.15l.76.25-.46.61h0a3.06,3.06,0,0,1,2.23-.13c1.13.38,1.39,1.37.5,2.43a3.43,3.43,0,0,1-3.67,1.15c-.62-.2-1-.58-1-1h0l-1.55,1.88-.83-.29Zm.07,1.2a1.81,1.81,0,0,0-.18.27c-.21.49.05,1,.65,1.16a2.37,2.37,0,0,0,2.54-.86c.58-.7.58-1.46-.32-1.76a2.25,2.25,0,0,0-1.93.36,2,2,0,0,0-.27.23Z" transform="translate(-868.14 -644.83)"/><path class="cls-2" d="M966.54,675l.3-.46h0a3,3,0,0,1-1.88,0c-.95-.33-1-1-.6-1.49.7-.84,2.1-1,3.93-.34l.06-.08c.25-.29.58-.84-.4-1.17a3.92,3.92,0,0,0-1.45-.15l.16-.48a4.47,4.47,0,0,1,1.82.21c1.46.48,1.19,1.33.6,2l-1.1,1.31a5.61,5.61,0,0,0-.63.86Zm1.37-1.83c-.93-.32-2.1-.56-2.67.12-.34.41-.13.73.31.87a1.94,1.94,0,0,0,1.63-.19,1.37,1.37,0,0,0,.22-.19Z" transform="translate(-868.14 -644.83)"/><path class="cls-2" d="M977.2,671.9l-3.65,4.27c-.26.31-.56.67-.73.92l-.79-.26.48-.63h0a3,3,0,0,1-2.22.13c-1.16-.39-1.44-1.4-.54-2.47a3.62,3.62,0,0,1,3.76-1.17c.74.25,1,.67,1,1h0l1.8-2.11Zm-3.52,2.8a1.26,1.26,0,0,0,.19-.28c.22-.45,0-.95-.64-1.17a2.48,2.48,0,0,0-2.6.88c-.6.71-.62,1.45.32,1.77a2.16,2.16,0,0,0,1.93-.33,1.37,1.37,0,0,0,.28-.26Z" transform="translate(-868.14 -644.83)"/><path class="cls-2" d="M983,673.79l-3.71,4.3c-.27.31-.57.67-.75.92l-.8-.27.49-.62h0a3.08,3.08,0,0,1-2.27.13c-1.17-.4-1.46-1.42-.55-2.49a3.72,3.72,0,0,1,3.83-1.18c.76.25,1.05.68,1,1h0l1.84-2.13Zm-3.58,2.81a1.26,1.26,0,0,0,.19-.28c.22-.46,0-1-.65-1.18a2.52,2.52,0,0,0-2.64.88c-.62.71-.64,1.46.32,1.79a2.24,2.24,0,0,0,2-.33,2.27,2.27,0,0,0,.28-.26Z" transform="translate(-868.14 -644.83)"/><path class="cls-2" d="M984.91,675.28a.85.85,0,0,1-.92.21c-.32-.11-.4-.36-.21-.58a.91.91,0,0,1,.93-.22C985.05,674.8,985.11,675.05,984.91,675.28Zm-5,4.22L983,676l.91.3-3.09,3.56Z" transform="translate(-868.14 -644.83)"/><path class="cls-2" d="M984.61,677.72c.32-.37.57-.68.8-1l.81.27-.46.61h0a3.27,3.27,0,0,1,2.26-.12c.7.23,1.53.89.45,2.12l-1.87,2.14-.92-.31,1.8-2.06c.51-.58.63-1.16-.24-1.45a2.22,2.22,0,0,0-1.81.26,1.69,1.69,0,0,0-.33.28l-1.86,2.14-.91-.31Z" transform="translate(-868.14 -644.83)"/><path class="cls-2" d="M995.72,680.15c-.26.25-.54.54-.93,1l-1.86,2.09a3.8,3.8,0,0,1-2.18,1.38,4.33,4.33,0,0,1-2.23-.2,3.18,3.18,0,0,1-1.43-.87l.67-.41a2.61,2.61,0,0,0,1.24.78,2.39,2.39,0,0,0,2.75-.69l.35-.4h0a3.22,3.22,0,0,1-2.16.05,1.4,1.4,0,0,1-.62-2.48,3.94,3.94,0,0,1,4-1.14c.89.3,1.09.79,1.05,1.16h0l.53-.53Zm-2.24,1.1a1,1,0,0,0,.21-.32c.16-.43,0-.9-.7-1.12a2.61,2.61,0,0,0-2.72.85c-.62.7-.64,1.46.37,1.79a2.29,2.29,0,0,0,1.88-.23,1.74,1.74,0,0,0,.38-.32Z" transform="translate(-868.14 -644.83)"/><path class="cls-2" d="M996.49,681.18a1,1,0,0,1,1.06-.26c.38.13.45.4.22.68a1,1,0,0,1-1.06.25C996.33,681.73,996.25,681.44,996.49,681.18Zm-2.35,2.63a1,1,0,0,1,1.06-.25c.38.12.45.4.21.68a1,1,0,0,1-1,.24C994,684.36,993.91,684.07,994.14,683.81Z" transform="translate(-868.14 -644.83)"/><path class="cls-2" d="M1005.2,684.78c-1.51,1.66-3.24,2.27-4.81,1.74-1.38-.46-1.51-1.67-.09-3.28s3.32-2.21,4.78-1.73S1006.62,683.21,1005.2,684.78Zm-3.94-1.22c-1.14,1.27-1.23,2.18-.36,2.47s2.17-.3,3.3-1.54,1.36-2.16.36-2.49C1003.71,681.72,1002.46,682.23,1001.26,683.56Z" transform="translate(-868.14 -644.83)"/><path class="cls-2" d="M1002.68,688.39a18.29,18.29,0,0,0,2.29-1.57l1.14.29a19.33,19.33,0,0,1-2.72,1.47Zm4.08-3.8a1.08,1.08,0,0,1,1.09-.26c.4.13.48.42.22.7a1.06,1.06,0,0,1-1.08.25C1006.6,685.15,1006.52,684.85,1006.76,684.59Z" transform="translate(-868.14 -644.83)"/><path class="cls-2" d="M951.54,680.72l2.41-2.91-.63-.23.39-.47.63.23.14-.17a2.83,2.83,0,0,1,1.51-1,2.44,2.44,0,0,1,1.38.07,2,2,0,0,1,.63.34l-.51.44a1.29,1.29,0,0,0-.47-.26,1.54,1.54,0,0,0-1.71.68l-.15.18,1.11.39-.4.47-1.1-.39L952.35,681Z" transform="translate(-868.14 -644.83)"/><path class="cls-2" d="M959.66,681.36a3.5,3.5,0,0,1-3.81,1,1.45,1.45,0,0,1-.73-2.52,3.45,3.45,0,0,1,3.78-1C960.23,679.29,960.53,680.32,959.66,681.36ZM956,680.11c-.62.75-.51,1.51.3,1.8a2.41,2.41,0,0,0,2.5-.83c.48-.57.71-1.45-.28-1.79A2.37,2.37,0,0,0,956,680.11Z" transform="translate(-868.14 -644.83)"/><path class="cls-2" d="M961.36,681a12,12,0,0,0,.74-.94l.75.27-.43.58h0a2.84,2.84,0,0,1,2.1-.11c.65.23,1.42.87.42,2.05l-1.74,2-.85-.3,1.67-2c.47-.56.58-1.12-.22-1.4a2,2,0,0,0-1.68.24,1.12,1.12,0,0,0-.31.27l-1.73,2-.84-.3Z" transform="translate(-868.14 -644.83)"/><path class="cls-2" d="M969.39,681.3l-.85,1,1.24.43-.41.48-1.24-.43-1.58,1.86c-.37.42-.41.72.07.89a3.08,3.08,0,0,0,.54.14l-.36.48A3,3,0,0,1,966,686c-.4-.14-.64-.35-.7-.59s.08-.61.43-1l1.6-1.88-.74-.25.41-.48.73.25.71-.82Z" transform="translate(-868.14 -644.83)"/><path class="cls-2" d="M971.63,685.05l-.4.47-2.45-.86.4-.47Z" transform="translate(-868.14 -644.83)"/><path class="cls-2" d="M970.87,687.61l2.58-3-.68-.24.41-.48.68.24L974,684a2.93,2.93,0,0,1,1.61-1,2.66,2.66,0,0,1,1.47.09,1.92,1.92,0,0,1,.67.36l-.54.45a1.46,1.46,0,0,0-.5-.28,1.65,1.65,0,0,0-1.82.68l-.16.19,1.17.41-.42.48-1.17-.41-2.58,3Z" transform="translate(-868.14 -644.83)"/><path class="cls-2" d="M976.39,689.57l.31-.46h0a3.06,3.06,0,0,1-1.94,0c-1-.35-1.06-1-.62-1.52.73-.84,2.17-.93,4.06-.25l.06-.08c.25-.28.59-.84-.41-1.19a3.83,3.83,0,0,0-1.5-.19l.16-.49a4.82,4.82,0,0,1,1.88.25c1.51.53,1.23,1.39.62,2.09l-1.14,1.3a5.28,5.28,0,0,0-.64.86Zm1.41-1.82c-1-.35-2.16-.62-2.75,0-.35.41-.14.74.31.9a2,2,0,0,0,1.69-.16,1.08,1.08,0,0,0,.23-.18Z" transform="translate(-868.14 -644.83)"/><path class="cls-2" d="M980.79,687.8c.32-.36.57-.66.79-1l.79.28-.46.58h0a2.88,2.88,0,0,1,2.13-.1c.68.24.95.71.8,1.2h0a3.4,3.4,0,0,1,1-.27,2.85,2.85,0,0,1,1.34.15c.67.23,1.39.88.3,2.11l-1.84,2.07-.89-.32,1.76-2c.6-.67.61-1.21-.13-1.47a2,2,0,0,0-1.6.21,1.54,1.54,0,0,0-.35.29l-1.91,2.16-.89-.31,1.85-2.1c.5-.56.5-1.09-.19-1.33a2.06,2.06,0,0,0-1.68.25,1.2,1.2,0,0,0-.35.28l-1.85,2.11-.87-.31Z" transform="translate(-868.14 -644.83)"/><path class="cls-2" d="M992.23,689.25a.89.89,0,0,1-1,.19c-.32-.12-.4-.37-.2-.59a.92.92,0,0,1,.94-.21C992.37,688.77,992.44,689,992.23,689.25Zm-5.08,4.16,3.15-3.53.93.33-3.16,3.53Z" transform="translate(-868.14 -644.83)"/><path class="cls-2" d="M994.28,689.09l.94.32-4.68,5.2-.93-.33Z" transform="translate(-868.14 -644.83)"/><path class="cls-2" d="M995.64,691.75l-.76,2.5c-.09.27-.22.6-.32.84h0c.29-.18.64-.42,1-.63l2.93-1.72,1,.35-3.73,2a12.11,12.11,0,0,1-3.78,1.58,4.55,4.55,0,0,1-1.51,0l.25-.62a4.51,4.51,0,0,0,1.09,0,4.86,4.86,0,0,0,1.44-.43.7.7,0,0,0,.21-.13.67.67,0,0,0,.09-.19l1-3.94Z" transform="translate(-868.14 -644.83)"/><path class="cls-2" d="M999.89,694a1,1,0,0,1,1.07-.24c.38.13.46.41.22.69a1,1,0,0,1-1.07.23C999.73,694.56,999.65,694.26,999.89,694Zm-2.37,2.59a1,1,0,0,1,1.07-.23c.37.14.45.42.21.69a1,1,0,0,1-1.06.22C997.36,697.15,997.28,696.86,997.52,696.6Z" transform="translate(-868.14 -644.83)"/><path class="cls-2" d="M1007.35,693.85l-1.84,1.72-.59-.2,1.47-1.85Z" transform="translate(-868.14 -644.83)"/><path class="cls-2" d="M1008.62,694.49a15.25,15.25,0,0,1,2,.54c1,.36,1.6.72,1.81,1.17a1,1,0,0,1-.3,1.17,3.14,3.14,0,0,1-2.62.79l0,0c.45.34.47.82.16,1.4a6.67,6.67,0,0,0-.7,1.58l-1-.36a5.38,5.38,0,0,1,.61-1.37c.42-.77.26-1.17-.6-1.5l-.92-.32-2,2.16-1-.34Zm-1.15,2.62,1,.35a2.42,2.42,0,0,0,2.59-.36c.61-.65.16-1.18-.86-1.55a5.78,5.78,0,0,0-1-.27Z" transform="translate(-868.14 -644.83)"/><path class="cls-2" d="M1013.15,702.67l.35-.48,0,0a3.56,3.56,0,0,1-2.18-.06c-1.1-.39-1.18-1.1-.69-1.62.81-.87,2.43-.94,4.55-.18l.07-.08c.28-.3.66-.88-.46-1.28a4.61,4.61,0,0,0-1.69-.23l.18-.51a5.67,5.67,0,0,1,2.11.31c1.69.59,1.39,1.49.7,2.22l-1.28,1.35a6.28,6.28,0,0,0-.72.9Zm1.59-1.9c-1.08-.4-2.43-.7-3.08,0-.4.42-.16.77.34,1a2.37,2.37,0,0,0,1.9-.13,1.26,1.26,0,0,0,.25-.19Z" transform="translate(-868.14 -644.83)"/><path class="cls-2" d="M1020.64,698.2l1,.35-5.07,5.34-1-.35Z" transform="translate(-868.14 -644.83)"/><path class="cls-2" d="M1020.47,703c-.83.91-.3,1.58.72,2a5.92,5.92,0,0,0,1.73.36l-.28.54a7.55,7.55,0,0,1-2.08-.44c-1.72-.62-2-1.71-1-2.81a4.36,4.36,0,0,1,4.51-1c1.86.64,1.34,1.87.69,2.54a3.43,3.43,0,0,1-.33.3Zm3.45.59c.42-.42.77-1.18-.39-1.59a2.82,2.82,0,0,0-2.6.53Z" transform="translate(-868.14 -644.83)"/><path class="cls-2" d="M1028,703.05l-1,2.13a14.91,14.91,0,0,1-.7,1.32h0c.49-.32,1.06-.65,1.63-1l2.76-1.55.88.31-.9,2.16a12.77,12.77,0,0,1-.65,1.38h0a18,18,0,0,1,1.6-1l2.64-1.57,1.05.37-5.47,3-1-.34.83-2.06a9.24,9.24,0,0,1,.66-1.39h0a18.76,18.76,0,0,1-1.7,1l-2.6,1.41-.94-.33,1.81-4.27Z" transform="translate(-868.14 -644.83)"/><path class="cls-2" d="M1036,710.81l.37-.49,0,0a3.91,3.91,0,0,1-2.33-.09c-1.18-.42-1.27-1.15-.74-1.68.87-.9,2.6-.94,4.87-.14l.07-.07c.31-.31.72-.91-.49-1.33a5,5,0,0,0-1.8-.26l.19-.53a6.54,6.54,0,0,1,2.26.34c1.81.64,1.48,1.57.75,2.31l-1.37,1.39a6,6,0,0,0-.78.92Zm1.7-1.94c-1.15-.43-2.6-.76-3.3,0-.43.44-.17.81.37,1a2.61,2.61,0,0,0,2-.12,1.09,1.09,0,0,0,.27-.19Z" transform="translate(-868.14 -644.83)"/><path class="cls-2" d="M1042.6,708.13l-.88,2.66a9.16,9.16,0,0,1-.38.89h0c.33-.18.73-.42,1.15-.64l3.38-1.77,1.16.41-4.3,2.08a13.86,13.86,0,0,1-4.35,1.59,5.33,5.33,0,0,1-1.74,0l.29-.66a4.74,4.74,0,0,0,1.26,0,5.79,5.79,0,0,0,1.65-.42.7.7,0,0,0,.24-.13.45.45,0,0,0,.1-.21l1.2-4.19Z" transform="translate(-868.14 -644.83)"/><path class="cls-2" d="M1050.45,708.76l-2.09,1.79-.67-.24,1.66-1.93Z" transform="translate(-868.14 -644.83)"/><path class="cls-2" d="M1043.6,714.79a19.66,19.66,0,0,0,2.59-1.57l1.3.36a21.45,21.45,0,0,1-3.06,1.45Z" transform="translate(-868.14 -644.83)"/><path class="cls-2" d="M1051.06,715.23a3,3,0,0,0,1.2.79,1.7,1.7,0,0,0,1.76-.13c.34-.33.2-.62-.44-1.1-.86-.63-1-1.19-.55-1.64a3.31,3.31,0,0,1,3.26-.36,3.15,3.15,0,0,1,1.29.77l-.79.4a2.34,2.34,0,0,0-1-.66,1.55,1.55,0,0,0-1.56.15c-.31.31-.09.58.53,1,.82.63,1,1.15.46,1.71a3.39,3.39,0,0,1-3.45.3,3.73,3.73,0,0,1-1.46-.86Z" transform="translate(-868.14 -644.83)"/><path class="cls-2" d="M1059,719l.39-.5,0,0a4.4,4.4,0,0,1-2.49-.12c-1.26-.45-1.35-1.21-.8-1.75.94-.92,2.79-.94,5.21-.08l.08-.08c.32-.31.76-.93-.53-1.38a5.7,5.7,0,0,0-1.92-.29l.2-.54a6.82,6.82,0,0,1,2.42.38c1.93.68,1.58,1.63.8,2.39l-1.47,1.42a6.58,6.58,0,0,0-.83.94Zm1.81-2c-1.23-.46-2.77-.82-3.52-.09-.46.44-.19.83.39,1a2.92,2.92,0,0,0,2.17-.09,1.64,1.64,0,0,0,.29-.2Z" transform="translate(-868.14 -644.83)"/><path class="cls-2" d="M1064.66,717.23a13.53,13.53,0,0,0,1-1.05l1,.36-.58.65h0a4.53,4.53,0,0,1,2.87,0c.89.31,2,1.11.58,2.42l-2.38,2.27-1.17-.41,2.29-2.19c.65-.62.8-1.26-.31-1.65a3.06,3.06,0,0,0-2.3.16,1.66,1.66,0,0,0-.41.3l-2.37,2.27-1.15-.41Z" transform="translate(-868.14 -644.83)"/><path class="cls-2" d="M1069.69,721.84a3.18,3.18,0,0,0,1.26.82,1.84,1.84,0,0,0,1.87-.12c.35-.33.2-.63-.47-1.13-.91-.65-1.06-1.23-.58-1.68a3.54,3.54,0,0,1,3.44-.34,3.47,3.47,0,0,1,1.36.8l-.84.4a2.56,2.56,0,0,0-1.1-.69,1.72,1.72,0,0,0-1.65.14c-.33.32-.09.6.56,1.09.86.65,1.09,1.19.49,1.76s-2.1.82-3.64.28a4,4,0,0,1-1.54-.91Z" transform="translate(-868.14 -644.83)"/><path class="cls-2" d="M1079.76,723.08l-.55.52-3.37-1.19.55-.52Z" transform="translate(-868.14 -644.83)"/><path class="cls-2" d="M1079.2,725.21a3.23,3.23,0,0,0,1.3.85,1.91,1.91,0,0,0,1.91-.12c.36-.33.21-.64-.48-1.14-.94-.67-1.09-1.26-.6-1.72a3.67,3.67,0,0,1,3.53-.32,3.34,3.34,0,0,1,1.4.82l-.86.4a2.61,2.61,0,0,0-1.13-.71,1.74,1.74,0,0,0-1.69.14c-.34.32-.1.6.57,1.1.89.67,1.12,1.21.5,1.79s-2.15.82-3.73.26a4.18,4.18,0,0,1-1.59-.92Z" transform="translate(-868.14 -644.83)"/><path class="cls-2" d="M1086.7,726.37c-1,1-.37,1.73.86,2.16a7.78,7.78,0,0,0,2.11.47l-.34.58a9.81,9.81,0,0,1-2.52-.56c-2.08-.74-2.47-2-1.21-3.13a5.54,5.54,0,0,1,5.45-1c2.25.78,1.62,2.11.84,2.82a3.39,3.39,0,0,1-.41.32Zm4.18.77c.5-.44.92-1.26-.48-1.75a3.6,3.6,0,0,0-3.14.48Z" transform="translate(-868.14 -644.83)"/><path class="cls-2" d="M1094,727.76c.51-.46.92-.86,1.28-1.24l1.1.38-.8.79.06,0a4,4,0,0,1,2.87-.19,2.27,2.27,0,0,1,.34.15l-.74.68a2.28,2.28,0,0,0-.41-.18,3.27,3.27,0,0,0-2.7.32,3.77,3.77,0,0,0-.42.31l-2.28,2.07-1.23-.44Z" transform="translate(-868.14 -644.83)"/><path class="cls-2" d="M1102.78,727.59a1.32,1.32,0,0,1-1.3.16c-.45-.16-.56-.46-.29-.71a1.4,1.4,0,0,1,1.3-.17C1103,727,1103.06,727.34,1102.78,727.59Zm-7,4.52,4.32-3.91,1.28.45-4.34,3.91Z" transform="translate(-868.14 -644.83)"/><path class="cls-2" d="M1099.31,733.36l3.75-3.38-1-.34.61-.55,1,.35.21-.19a4.25,4.25,0,0,1,2.36-1.09,4.87,4.87,0,0,1,2.16.23,3.76,3.76,0,0,1,1,.5l-.8.5a2.26,2.26,0,0,0-.73-.38,2.58,2.58,0,0,0-2.67.66l-.23.21,1.72.61-.61.54-1.72-.6-3.77,3.38Z" transform="translate(-868.14 -644.83)"/><path class="cls-2" d="M1102,735.69a23,23,0,0,0,3-1.62l1.52.43a26.08,26.08,0,0,1-3.62,1.46Zm5.43-4.05a1.53,1.53,0,0,1,1.45-.2c.53.18.64.51.3.82a1.56,1.56,0,0,1-1.45.2C1107.17,732.28,1107.07,731.93,1107.39,731.64Z" transform="translate(-868.14 -644.83)"/><path class="cls-2" d="M947.87,690a4.23,4.23,0,0,1-1.43-.29c-1.34-.49-1.64-1.49-.81-2.5a3.45,3.45,0,0,1,3.85-.88,2.8,2.8,0,0,1,1,.58l-.58.4a1.77,1.77,0,0,0-.81-.5,2.32,2.32,0,0,0-2.61.67,1,1,0,0,0,.51,1.81,3.46,3.46,0,0,0,1.13.21Z" transform="translate(-868.14 -644.83)"/><path class="cls-2" d="M954.15,690.3a3.36,3.36,0,0,1-3.73.92,1.45,1.45,0,0,1-.72-2.5,3.35,3.35,0,0,1,3.72-1C954.72,688.25,955,689.27,954.15,690.3Zm-3.61-1.3c-.61.73-.5,1.49.3,1.79a2.32,2.32,0,0,0,2.45-.79c.48-.56.7-1.42-.28-1.78A2.28,2.28,0,0,0,950.54,689Z" transform="translate(-868.14 -644.83)"/><path class="cls-2" d="M957.92,687.46l.84.31-4.17,4.92-.82-.31Z" transform="translate(-868.14 -644.83)"/><path class="cls-2" d="M961.62,693.06a3.48,3.48,0,0,1-3.83.92c-1.24-.46-1.63-1.48-.74-2.54a3.47,3.47,0,0,1,3.81-.94C962.2,691,962.5,692,961.62,693.06Zm-3.71-1.32c-.62.73-.51,1.5.31,1.8a2.37,2.37,0,0,0,2.51-.78c.49-.57.72-1.44-.28-1.81A2.37,2.37,0,0,0,957.91,691.74Z" transform="translate(-868.14 -644.83)"/><path class="cls-2" d="M963.21,692.85c.34-.4.62-.74.87-1.07l.74.28-.54.67,0,0a2.31,2.31,0,0,1,1.94-.27,1,1,0,0,1,.23.12l-.5.58a1.22,1.22,0,0,0-.28-.13,1.9,1.9,0,0,0-1.82.37,1.45,1.45,0,0,0-.29.27l-1.54,1.79-.84-.31Z" transform="translate(-868.14 -644.83)"/><path class="cls-2" d="M966.7,693.49a.89.89,0,0,1,1-.23.38.38,0,0,1,.2.66.88.88,0,0,1-1,.21C966.56,694,966.49,693.73,966.7,693.49ZM964.57,696a.87.87,0,0,1,1-.22.39.39,0,0,1,.2.66.89.89,0,0,1-1,.21C964.43,696.47,964.36,696.2,964.57,696Z" transform="translate(-868.14 -644.83)"/><path class="cls-2" d="M968.76,698l1.46-1.28-.81-.3.36-.41.9.33,1.08-1-.86-.31.37-.42.94.35,1.44-1.26.58.21-1.43,1.26,1,.39,1.45-1.26.59.21-1.44,1.27.82.3-.36.42-.92-.34-1.07,1,.85.32-.36.41-.95-.35L971,698.82l-.59-.22,1.46-1.28-1-.39-1.46,1.28Zm3.54-1,1.08-1-1-.38-1.08.95Z" transform="translate(-868.14 -644.83)"/><path class="cls-2" d="M976.19,700.77l.31-.46h0a3,3,0,0,1-1.94,0c-1-.36-1-1-.62-1.53.73-.82,2.17-.89,4.06-.18l.06-.07c.25-.29.59-.84-.41-1.21a3.85,3.85,0,0,0-1.5-.21l.16-.49a4.88,4.88,0,0,1,1.88.29c1.5.55,1.23,1.4.62,2.09l-1.14,1.28a5.71,5.71,0,0,0-.64.85ZM977.6,699c-1-.38-2.16-.66-2.74,0-.36.4-.15.73.31.9a2,2,0,0,0,1.68-.13.84.84,0,0,0,.23-.18Z" transform="translate(-868.14 -644.83)"/><path class="cls-2" d="M981.09,702.61l.32-.46h0a3.19,3.19,0,0,1-2-.06c-1-.37-1.07-1.05-.63-1.55.74-.83,2.2-.89,4.12-.17l.06-.07c.26-.29.6-.84-.42-1.22a3.93,3.93,0,0,0-1.52-.22l.16-.49a5,5,0,0,1,1.91.3c1.53.56,1.26,1.42.63,2.11l-1.15,1.29a6,6,0,0,0-.66.85Zm1.44-1.81c-1-.38-2.2-.67-2.79,0-.36.4-.15.74.31.91a2,2,0,0,0,1.71-.13.88.88,0,0,0,.23-.18Z" transform="translate(-868.14 -644.83)"/><path class="cls-2" d="M986.07,704.47l.32-.46h0a3.22,3.22,0,0,1-2-.07c-1-.37-1.09-1.06-.64-1.56.75-.83,2.24-.89,4.19-.16l.06-.07c.26-.29.61-.85-.42-1.23a4.08,4.08,0,0,0-1.55-.22l.17-.49a4.77,4.77,0,0,1,1.93.3c1.56.57,1.28,1.43.65,2.13l-1.18,1.29a6.35,6.35,0,0,0-.67.86Zm1.46-1.81c-1-.39-2.23-.69-2.83,0-.37.41-.15.75.32.92a2.06,2.06,0,0,0,1.73-.12,1.16,1.16,0,0,0,.24-.18Z" transform="translate(-868.14 -644.83)"/><path class="cls-2" d="M986.92,706a16.35,16.35,0,0,0,2.18-1.47l1.09.31a16.9,16.9,0,0,1-2.59,1.36Zm3.89-3.6a1,1,0,0,1,1-.22c.39.14.46.41.22.68a1,1,0,0,1-1,.22C990.65,702.9,990.58,702.61,990.81,702.36Z" transform="translate(-868.14 -644.83)"/><path class="cls-2" d="M941.43,695.72l-.36.43-2.21-.86.36-.43Z" transform="translate(-868.14 -644.83)"/><path class="cls-2" d="M943.64,695l-.8,1.87a12.35,12.35,0,0,1-.53,1.16h0c.38-.29.81-.58,1.25-.87l2.11-1.39.67.26-.68,1.9a10.8,10.8,0,0,1-.5,1.21l0,0c.35-.3.75-.6,1.22-.93l2-1.39.8.3-4.18,2.71-.73-.28.63-1.82a9.6,9.6,0,0,1,.51-1.22h0a14.8,14.8,0,0,1-1.3.92l-2,1.27-.72-.28,1.39-3.76Z" transform="translate(-868.14 -644.83)"/><path class="cls-2" d="M949,699.32c-.66.81-.24,1.42.57,1.74a4.36,4.36,0,0,0,1.39.31l-.23.48a5.32,5.32,0,0,1-1.66-.38c-1.37-.54-1.63-1.52-.8-2.5a3.24,3.24,0,0,1,3.6-1c1.48.56,1.06,1.66.55,2.26a3.34,3.34,0,0,1-.27.27Zm2.75.51c.33-.38.61-1.06-.31-1.41a2.08,2.08,0,0,0-2.07.48Z" transform="translate(-868.14 -644.83)"/><path class="cls-2" d="M951.81,702.47c.2-.21.51-.54.76-.83l3.4-4,.82.31L955,700.05h0a2.76,2.76,0,0,1,2.08,0c1.14.44,1.36,1.44.48,2.44a3.25,3.25,0,0,1-3.56,1c-.65-.26-1-.65-1-1.21h0l-.5.52Zm2-1a2.22,2.22,0,0,0-.15.23.9.9,0,0,0,.64,1.19,2.19,2.19,0,0,0,2.47-.73c.57-.66.59-1.41-.3-1.75a2.1,2.1,0,0,0-1.9.25,1.64,1.64,0,0,0-.25.22Z" transform="translate(-868.14 -644.83)"/><path class="cls-2" d="M959.57,703.13h0l.73-.21,2.36-.62,1,.39-3,.67.35,2.75-1-.4-.22-2.21-.73.17L958,704.91l-.83-.32,4.2-4.86.84.32Z" transform="translate(-868.14 -644.83)"/><path class="cls-2" d="M966.52,702.52a.8.8,0,0,1-.88.16c-.3-.12-.37-.36-.19-.57a.82.82,0,0,1,.87-.18C966.64,702.06,966.7,702.3,966.52,702.52Zm-4.68,3.89,2.9-3.32.86.33-2.91,3.32Z" transform="translate(-868.14 -644.83)"/><path class="cls-2" d="M968.91,703.41l-.85,1,1.24.48-.41.46-1.24-.48-1.58,1.8c-.36.41-.4.71.08.9a2.47,2.47,0,0,0,.53.15l-.36.47a2.85,2.85,0,0,1-.83-.22,1,1,0,0,1-.7-.61c-.09-.27.08-.6.43-1l1.59-1.81-.73-.29.4-.46.74.28.7-.8Z" transform="translate(-868.14 -644.83)"/><path class="cls-2" d="M971.14,707.24l-.4.45-2.43-1,.39-.45Z" transform="translate(-868.14 -644.83)"/><path class="cls-2" d="M970.39,709.77l2.57-2.89-.68-.26.42-.47.68.27.14-.16a2.68,2.68,0,0,1,3.08-.83,2.18,2.18,0,0,1,.67.39l-.55.43a1.3,1.3,0,0,0-.49-.29,1.58,1.58,0,0,0-1.82.61l-.16.18,1.17.45-.42.47-1.17-.45-2.57,2.89Z" transform="translate(-868.14 -644.83)"/><path class="cls-2" d="M979,710.84a3.7,3.7,0,0,1-4,.83c-1.31-.51-1.72-1.57-.77-2.63a3.65,3.65,0,0,1,4-.86C979.65,708.73,980,709.8,979,710.84Zm-3.91-1.48c-.66.74-.55,1.53.32,1.87a2.53,2.53,0,0,0,2.66-.73c.51-.57.75-1.46-.3-1.86A2.46,2.46,0,0,0,975.12,709.36Z" transform="translate(-868.14 -644.83)"/><path class="cls-2" d="M980.85,710.53c.31-.35.56-.64.79-.93l.8.31-.46.58h0a3.14,3.14,0,0,1,2.23,0c.7.27,1.52,1,.45,2.13l-1.85,2-.91-.36,1.79-1.95c.5-.55.61-1.12-.25-1.45a2.14,2.14,0,0,0-1.78.16,1.35,1.35,0,0,0-.33.26l-1.84,2-.9-.35Z" transform="translate(-868.14 -644.83)"/><path class="cls-2" d="M989.4,711.25l-.9,1,1.32.51-.44.47-1.32-.51-1.69,1.84c-.39.42-.43.73.08.93a3,3,0,0,0,.57.16l-.38.48a3.33,3.33,0,0,1-.89-.23c-.43-.17-.69-.39-.75-.65s.09-.62.46-1l1.7-1.86-.78-.3.43-.47.79.3.75-.82Z" transform="translate(-868.14 -644.83)"/><path class="cls-2" d="M991.79,715.25l-.43.46-2.6-1,.42-.45Z" transform="translate(-868.14 -644.83)"/><path class="cls-2" d="M991.35,717.13a2.61,2.61,0,0,0,1,.73,1.36,1.36,0,0,0,1.48-.12c.28-.3.16-.57-.37-1-.72-.57-.84-1.08-.46-1.49a2.54,2.54,0,0,1,2.72-.32,2.63,2.63,0,0,1,1.08.7l-.66.37a1.89,1.89,0,0,0-.88-.61,1.21,1.21,0,0,0-1.3.13c-.26.28-.07.53.44,1,.69.58.87,1.06.39,1.57a2.66,2.66,0,0,1-2.89.27,3.18,3.18,0,0,1-1.22-.8Z" transform="translate(-868.14 -644.83)"/><path class="cls-2" d="M997.46,717a12.47,12.47,0,0,0,.83-1l.83.32-.48.58h0a3.1,3.1,0,0,1,2.25,0c.72.28,1,.77.84,1.27h0a4,4,0,0,1,1-.23,3.17,3.17,0,0,1,1.4.21c.71.28,1.47,1,.32,2.19l-1.94,2-.94-.37,1.86-1.95c.64-.67.64-1.21-.14-1.52a2.12,2.12,0,0,0-1.68.14,1.44,1.44,0,0,0-.37.28l-2,2.13-.93-.37,2-2.06c.52-.55.52-1.09-.21-1.37a2.19,2.19,0,0,0-1.77.17,1.25,1.25,0,0,0-.36.28l-2,2.07-.92-.36Z" transform="translate(-868.14 -644.83)"/><path class="cls-2" d="M1010.74,723.16a4.18,4.18,0,0,1-4.47.79c-1.45-.57-1.91-1.69-.86-2.78a4.17,4.17,0,0,1,4.44-.82C1011.41,721,1011.77,722.09,1010.74,723.16Zm-4.33-1.63c-.72.76-.6,1.6.36,2a2.85,2.85,0,0,0,2.93-.71c.57-.59.84-1.52-.33-2A2.79,2.79,0,0,0,1006.41,721.53Z" transform="translate(-868.14 -644.83)"/><path class="cls-2" d="M1017,725.58a4.29,4.29,0,0,1-4.56.79c-1.47-.58-1.94-1.72-.87-2.82a4.25,4.25,0,0,1,4.53-.8C1017.66,723.36,1018,724.51,1017,725.58Zm-4.41-1.66c-.74.76-.61,1.61.36,2a2.91,2.91,0,0,0,3-.71c.59-.59.85-1.53-.33-2A2.86,2.86,0,0,0,1012.56,723.92Z" transform="translate(-868.14 -644.83)"/><path class="cls-2" d="M1022.17,723.81l-1,1,1.46.56-.48.49-1.46-.56-1.87,1.9c-.43.43-.48.75.09,1a3.16,3.16,0,0,0,.63.19l-.43.5a4.48,4.48,0,0,1-1-.27,1.25,1.25,0,0,1-.83-.69c-.1-.3.1-.66.51-1.07l1.88-1.91-.86-.34.48-.49.86.34.84-.85Z" transform="translate(-868.14 -644.83)"/><path class="cls-2" d="M1025.43,724.17l1,.4-2.2,2.21h0a3.46,3.46,0,0,1,1.19-.17,3.73,3.73,0,0,1,1.24.23c.77.29,1.71,1.06.48,2.28l-2.1,2.11-1-.41,2-2c.57-.57.71-1.19-.27-1.57a2.6,2.6,0,0,0-2,.11,1.39,1.39,0,0,0-.37.28l-2.11,2.12-1-.4Z" transform="translate(-868.14 -644.83)"/><path class="cls-2" d="M1032.52,727.8a1,1,0,0,1-1.07.14c-.37-.14-.46-.42-.23-.64a1,1,0,0,1,1.06-.15C1032.68,727.3,1032.75,727.57,1032.52,727.8Zm-5.73,4.1,3.55-3.55,1.05.41-3.56,3.54Z" transform="translate(-868.14 -644.83)"/><path class="cls-2" d="M1032.17,730.4c.37-.37.66-.68.93-1l.93.37-.53.61h0a3.92,3.92,0,0,1,2.61.07c.82.31,1.78,1.1.53,2.32l-2.17,2.13-1.06-.42,2.09-2c.58-.57.72-1.19-.28-1.58a2.7,2.7,0,0,0-2.1.12,1.56,1.56,0,0,0-.38.27l-2.15,2.14-1-.42Z" transform="translate(-868.14 -644.83)"/><path class="cls-2" d="M1045,734c-.29.25-.62.53-1.07,1l-2.16,2.08a4,4,0,0,1-2.52,1.3,5.77,5.77,0,0,1-2.59-.42,4.13,4.13,0,0,1-1.65-1.07l.77-.38a3.42,3.42,0,0,0,1.44,1,2.81,2.81,0,0,0,3.18-.49l.42-.4h0a3.84,3.84,0,0,1-2.5-.14c-1.46-.57-1.74-1.73-.73-2.72a4.61,4.61,0,0,1,4.63-.87c1,.4,1.27,1,1.22,1.35h0l.61-.53Zm-2.59,1a1,1,0,0,0,.24-.32c.19-.45,0-1-.81-1.27a3,3,0,0,0-3.15.67c-.72.7-.74,1.51.42,2a2.82,2.82,0,0,0,2.19-.08,1.64,1.64,0,0,0,.44-.31Z" transform="translate(-868.14 -644.83)"/><path class="cls-2" d="M1045.92,735.19a1.21,1.21,0,0,1,1.24-.18c.44.17.53.47.25.75a1.22,1.22,0,0,1-1.23.18C1045.74,735.77,1045.65,735.45,1045.92,735.19Zm-2.71,2.62a1.19,1.19,0,0,1,1.22-.18c.44.17.52.48.25.76a1.18,1.18,0,0,1-1.22.16C1043,738.38,1042.94,738.07,1043.21,737.81Z" transform="translate(-868.14 -644.83)"/><path class="cls-2" d="M1051.68,741.66l.39-.48,0,0a4.28,4.28,0,0,1-2.43-.2c-1.24-.48-1.33-1.24-.78-1.76.91-.87,2.73-.84,5.1.09l.08-.07c.31-.3.74-.9-.52-1.39a5.8,5.8,0,0,0-1.89-.35l.21-.53a6.9,6.9,0,0,1,2.36.46c1.89.73,1.55,1.67.78,2.39l-1.43,1.36a5.75,5.75,0,0,0-.81.9Zm1.78-1.9c-1.21-.49-2.72-.9-3.46-.2-.44.42-.17.81.4,1a2.72,2.72,0,0,0,2.11,0,1,1,0,0,0,.29-.19Z" transform="translate(-868.14 -644.83)"/><path class="cls-2" d="M1057.21,740.09c.4-.37.72-.69,1-1l1,.38-.58.63h0a4.43,4.43,0,0,1,2.81.12c.87.33,1.91,1.16.56,2.41l-2.33,2.18-1.14-.45,2.25-2.09c.63-.59.77-1.23-.31-1.65a3,3,0,0,0-2.25.09,1.36,1.36,0,0,0-.41.28l-2.32,2.18-1.12-.44Z" transform="translate(-868.14 -644.83)"/><path class="cls-2" d="M1068,741.36l-1.14,1.06,1.67.64-.55.51-1.67-.65-2.13,2c-.49.45-.55.79.1,1a3.85,3.85,0,0,0,.72.22l-.49.52a5.55,5.55,0,0,1-1.12-.31c-.54-.21-.86-.48-.94-.77s.11-.69.57-1.12l2.15-2-1-.38.54-.51,1,.38,1-.88Z" transform="translate(-868.14 -644.83)"/><path class="cls-2" d="M1072.29,743a1.19,1.19,0,0,1-1.2.12c-.41-.16-.51-.46-.26-.68a1.2,1.2,0,0,1,1.19-.14C1072.47,742.51,1072.55,742.8,1072.29,743Zm-6.42,4.19,4-3.66,1.18.45-4,3.67Z" transform="translate(-868.14 -644.83)"/><path class="cls-2" d="M1072.56,749.86l.41-.5,0,0a4.66,4.66,0,0,1-2.58-.23c-1.31-.51-1.41-1.3-.83-1.83,1-.88,2.9-.83,5.41.16l.09-.08c.33-.3.79-.91-.55-1.43a6.27,6.27,0,0,0-2-.38l.21-.54a7.54,7.54,0,0,1,2.51.49c2,.78,1.65,1.74.83,2.48l-1.52,1.38a5.88,5.88,0,0,0-.86.92Zm1.89-2c-1.28-.51-2.89-.95-3.67-.24-.47.43-.19.83.42,1.07a3,3,0,0,0,2.24,0,1,1,0,0,0,.3-.19Z" transform="translate(-868.14 -644.83)"/><path class="cls-2" d="M1081.47,745.56l1.21.47-6,5.43-1.2-.47Z" transform="translate(-868.14 -644.83)"/><path class="cls-2" d="M1085.32,748a1.26,1.26,0,0,1-1.24.12c-.43-.17-.53-.47-.27-.7a1.28,1.28,0,0,1,1.24-.14C1085.51,747.49,1085.59,747.79,1085.32,748Zm-6.65,4.22,4.12-3.7,1.22.47-4.14,3.71Z" transform="translate(-868.14 -644.83)"/><path class="cls-2" d="M1085.6,755l.43-.5,0,0a4.94,4.94,0,0,1-2.68-.25c-1.36-.53-1.46-1.33-.86-1.87,1-.89,3-.82,5.61.2l.09-.08c.35-.31.82-.92-.57-1.46a6.44,6.44,0,0,0-2.07-.4l.22-.55a7.9,7.9,0,0,1,2.6.52c2.08.8,1.7,1.78.86,2.53l-1.58,1.39a6.26,6.26,0,0,0-.89.93Zm2-2c-1.33-.54-3-1-3.8-.28-.49.44-.2.85.43,1.1a3.2,3.2,0,0,0,2.33,0,1.49,1.49,0,0,0,.31-.18Z" transform="translate(-868.14 -644.83)"/><path class="cls-2" d="M1089.21,755.4a3.4,3.4,0,0,0,1.34.9,2,2,0,0,0,2,0c.37-.32.22-.64-.49-1.18-1-.72-1.12-1.32-.62-1.76a4.49,4.49,0,0,1,5.07.7l-.88.38a2.91,2.91,0,0,0-1.17-.77,1.82,1.82,0,0,0-1.74.07c-.35.31-.09.61.59,1.14.91.71,1.16,1.28.52,1.83s-2.22.75-3.84.11a4.44,4.44,0,0,1-1.63-1Z" transform="translate(-868.14 -644.83)"/><path class="cls-2" d="M1096.92,756.88c-1,.93-.38,1.74.89,2.24a8.94,8.94,0,0,0,2.16.56l-.35.57a10.55,10.55,0,0,1-2.59-.68c-2.14-.84-2.54-2.09-1.25-3.22a5.73,5.73,0,0,1,5.62-.76c2.3.89,1.66,2.21.85,2.91-.16.14-.32.23-.41.3Zm4.29,1c.52-.43,1-1.24-.48-1.79a3.67,3.67,0,0,0-3.23.35Z" transform="translate(-868.14 -644.83)"/><path class="cls-2" d="M1114.13,758l-5.42,4.59c-.39.34-.83.72-1.09,1l-1.16-.46.71-.68h0a5.27,5.27,0,0,1-3.29-.21c-1.71-.67-2.13-2-.8-3.09a5.75,5.75,0,0,1,5.56-.8c1.1.42,1.52,1,1.49,1.42h0l2.68-2.28Zm-5.23,2.82a1.6,1.6,0,0,0,.28-.31c.32-.52,0-1.15-1-1.53a3.88,3.88,0,0,0-3.84.63c-.89.76-.93,1.67.47,2.21a3.73,3.73,0,0,0,2.86-.07,1.91,1.91,0,0,0,.4-.28Z" transform="translate(-868.14 -644.83)"/><path class="cls-2" d="M1107.77,765.07a22.68,22.68,0,0,0,3.1-1.51l1.54.49a24.39,24.39,0,0,1-3.68,1.33Zm5.51-3.86a1.56,1.56,0,0,1,1.48-.15c.54.21.64.55.3.84a1.54,1.54,0,0,1-1.47.14C1113.07,761.84,1113,761.49,1113.28,761.21Z" transform="translate(-868.14 -644.83)"/><path class="cls-2" d="M931.35,704.91c.2-.21.48-.52.71-.8l3.18-3.83.77.3-1.66,2h0a2.46,2.46,0,0,1,1.94,0c1.07.43,1.27,1.39.45,2.35a2.94,2.94,0,0,1-3.32.92c-.61-.25-.95-.63-.92-1.18h0l-.46.51Zm1.85-.94a.9.9,0,0,0-.14.22.87.87,0,0,0,.59,1.15,2,2,0,0,0,2.31-.69c.53-.64.54-1.36-.29-1.7a1.93,1.93,0,0,0-1.76.23,1.23,1.23,0,0,0-.24.22Z" transform="translate(-868.14 -644.83)"/><path class="cls-2" d="M938.76,708l.27-.43h0a2.54,2.54,0,0,1-1.71-.07c-.87-.35-.93-1-.55-1.45.65-.76,1.92-.81,3.59-.12l0-.07c.23-.26.53-.78-.36-1.14a3.16,3.16,0,0,0-1.32-.21l.14-.46a4,4,0,0,1,1.66.29c1.33.54,1.09,1.34.55,2l-1,1.19a5,5,0,0,0-.57.79Zm1.25-1.67c-.85-.37-1.91-.65-2.43,0-.31.37-.13.69.27.85a1.68,1.68,0,0,0,1.49-.11.64.64,0,0,0,.2-.16Z" transform="translate(-868.14 -644.83)"/><path class="cls-2" d="M943.88,709.89a4.49,4.49,0,0,1-1.41-.33c-1.32-.54-1.62-1.54-.79-2.52a3.32,3.32,0,0,1,3.79-.74,2.85,2.85,0,0,1,1,.61l-.57.38a1.86,1.86,0,0,0-.8-.53,2.25,2.25,0,0,0-2.58.58c-.62.74-.36,1.46.51,1.82a3.48,3.48,0,0,0,1.11.24Z" transform="translate(-868.14 -644.83)"/><path class="cls-2" d="M947,709h0c.21-.07.49-.14.71-.2l2.26-.59,1,.4-2.87.63.33,2.69-1-.4-.21-2.17-.7.17-1,1.2-.79-.33,4-4.71.8.32Z" transform="translate(-868.14 -644.83)"/><path class="cls-2" d="M955.7,710.51c-.22.23-.47.48-.81.88l-1.63,1.88a3.16,3.16,0,0,1-1.92,1.2,3.8,3.8,0,0,1-2-.29,3,3,0,0,1-1.25-.88l.58-.36a2.49,2.49,0,0,0,1.09.8,2,2,0,0,0,2.43-.53l.31-.36h0a2.56,2.56,0,0,1-1.9-.05,1.37,1.37,0,0,1-.55-2.35,3.21,3.21,0,0,1,3.51-.89c.79.32,1,.79.93,1.13h0l.46-.47Zm-2,.93a1,1,0,0,0,.18-.28c.15-.4,0-.85-.61-1.09a2.14,2.14,0,0,0-2.4.68c-.55.63-.56,1.34.33,1.7a1.93,1.93,0,0,0,1.65-.14,1.38,1.38,0,0,0,.34-.28Z" transform="translate(-868.14 -644.83)"/><path class="cls-2" d="M956.11,712c.33-.38.61-.71.85-1l.73.3-.53.65,0,0a2.19,2.19,0,0,1,1.9-.2.75.75,0,0,1,.22.11l-.49.56a1,1,0,0,0-.26-.13,1.82,1.82,0,0,0-1.79.3,2.21,2.21,0,0,0-.28.26L955,714.61l-.81-.34Z" transform="translate(-868.14 -644.83)"/><path class="cls-2" d="M962.81,715.56a3.42,3.42,0,0,1-3.85.78c-1.24-.51-1.64-1.55-.73-2.57a3.39,3.39,0,0,1,3.82-.8C963.39,713.51,963.69,714.56,962.81,715.56Zm-3.72-1.47c-.63.72-.52,1.49.3,1.83a2.37,2.37,0,0,0,2.53-.69c.49-.56.72-1.42-.29-1.83A2.3,2.3,0,0,0,959.09,714.09Z" transform="translate(-868.14 -644.83)"/><path class="cls-2" d="M967.14,718.38c-.3.34-.56.64-.76.91l-.76-.32.43-.55h0a3,3,0,0,1-2.1,0c-.74-.3-1.36-.94-.35-2.09l1.71-1.92.85.35-1.61,1.82c-.56.62-.66,1.15.12,1.46a2,2,0,0,0,1.61-.07,1.2,1.2,0,0,0,.35-.28l1.81-2,.86.35Z" transform="translate(-868.14 -644.83)"/><path class="cls-2" d="M969.93,717.46c.3-.34.55-.62.76-.91l.78.31-.45.57h0a3,3,0,0,1,2.16,0c.67.27,1.46,1,.43,2.1l-1.79,2-.87-.36,1.72-1.9c.48-.53.59-1.09-.23-1.43a2.07,2.07,0,0,0-1.73.14,1.26,1.26,0,0,0-.31.26l-1.78,2-.87-.35Z" transform="translate(-868.14 -644.83)"/><path class="cls-2" d="M982,719l-3.7,4a9.9,9.9,0,0,0-.74.87l-.8-.33.48-.59h0a3,3,0,0,1-2.25,0,1.44,1.44,0,0,1-.55-2.53,3.5,3.5,0,0,1,3.81-.9c.76.31,1,.75,1,1.11h0l1.83-2Zm-3.57,2.55a1,1,0,0,0,.19-.27c.22-.44,0-1-.65-1.22a2.38,2.38,0,0,0-2.63.69c-.61.67-.64,1.41.32,1.81a2.18,2.18,0,0,0,2-.19,1.61,1.61,0,0,0,.28-.24Z" transform="translate(-868.14 -644.83)"/><path class="cls-2" d="M981.31,721.59a.92.92,0,0,1,1-.19c.36.15.43.42.21.68a.91.91,0,0,1-1,.18C981.16,722.12,981.08,721.83,981.31,721.59ZM979.07,724a.94.94,0,0,1,1-.18c.36.15.43.42.2.68a.89.89,0,0,1-1,.17C978.92,724.54,978.85,724.25,979.07,724Z" transform="translate(-868.14 -644.83)"/><path class="cls-2" d="M983.46,726.3l1.53-1.24-.85-.35.38-.4.94.38,1.13-.92-.89-.37.38-.4,1,.4,1.51-1.22.61.24-1.5,1.22,1.09.44,1.52-1.22.62.25-1.51,1.23.86.35-.38.41-1-.39-1.13.93.9.37-.38.4-1-.4-1.54,1.24-.62-.26,1.53-1.24-1.08-.44-1.53,1.24Zm3.71-.92,1.14-.92-1.09-.44-1.13.92Z" transform="translate(-868.14 -644.83)"/><path class="cls-2" d="M988.14,728.22l.35-.38,1.16-.16c2.79-.38,4.14-.65,4.8-1.33.44-.46.5-1-.54-1.44a4,4,0,0,0-1.83-.2l.11-.56a5.25,5.25,0,0,1,2.4.33c1.5.6,1.49,1.53.87,2.18-.79.84-2.36,1.13-4.68,1.46l-.86.11h0l3.09,1.27-.48.5Z" transform="translate(-868.14 -644.83)"/><path class="cls-2" d="M993.56,730.44l.36-.37,1.18-.17c2.83-.37,4.21-.63,4.88-1.31.45-.47.51-1-.55-1.46a4,4,0,0,0-1.86-.21l.11-.56a5.4,5.4,0,0,1,2.44.33c1.53.61,1.52,1.55.89,2.21-.81.84-2.4,1.13-4.76,1.45l-.88.11h0l3.14,1.29-.49.51Z" transform="translate(-868.14 -644.83)"/><path class="cls-2" d="M999.07,732.71l.37-.38,1.2-.16c2.89-.37,4.29-.63,5-1.31.45-.47.52-1-.56-1.47a4.2,4.2,0,0,0-1.89-.23l.11-.56a5.48,5.48,0,0,1,2.48.35c1.55.62,1.55,1.56.91,2.22-.82.85-2.45,1.14-4.85,1.46l-.89.1h0l3.2,1.31-.5.52Z" transform="translate(-868.14 -644.83)"/><path class="cls-2" d="M1003.54,735.75a19.49,19.49,0,0,0,2.3-1.41l1.14.37a17.68,17.68,0,0,1-2.73,1.27Zm4.09-3.52a1,1,0,0,1,1.09-.18c.4.17.48.45.22.72a1,1,0,0,1-1.08.17C1007.47,732.78,1007.39,732.48,1007.63,732.23Z" transform="translate(-868.14 -644.83)"/><path class="cls-2" d="M924.33,710.1a.83.83,0,0,0-1.08.18,4.51,4.51,0,0,0-.35.54,4,4,0,0,1-.36.55,1.54,1.54,0,0,1-1.93.35l-.18-.08.29-.35.14.07a.87.87,0,0,0,1.12-.27,4,4,0,0,0,.32-.48,2.93,2.93,0,0,1,.33-.51,1.16,1.16,0,0,1,1.18-.44h0c-.31-.23-.38-.54,0-.95a3.9,3.9,0,0,1,.46-.45,4.36,4.36,0,0,0,.43-.43c.29-.35.27-.62-.21-.83l-.16-.07.29-.35.17.07c.73.3,1,.77.55,1.36a3.94,3.94,0,0,1-.5.5,6.13,6.13,0,0,0-.51.51c-.19.23-.31.51.3.77Z" transform="translate(-868.14 -644.83)"/><path class="cls-2" d="M915.33,718.23a.7.7,0,0,1,.82-.17.36.36,0,0,1,.16.6.66.66,0,0,1-.81.17A.36.36,0,0,1,915.33,718.23Z" transform="translate(-868.14 -644.83)"/><path class="cls-2" d="M916.91,719.37c.19-.19.46-.49.68-.76l3-3.66.73.32-1.57,1.91h0a2.28,2.28,0,0,1,1.84,0,1.33,1.33,0,0,1,.43,2.3,2.71,2.71,0,0,1-3.15.81,1.2,1.2,0,0,1-.88-1.17h0l-.44.48Zm1.75-.87a.85.85,0,0,0-.13.22.87.87,0,0,0,.57,1.13,1.84,1.84,0,0,0,2.19-.62c.5-.61.51-1.31-.27-1.66a1.78,1.78,0,0,0-1.68.18,1.46,1.46,0,0,0-.23.21Z" transform="translate(-868.14 -644.83)"/><path class="cls-2" d="M927.77,720c-.2.21-.43.45-.74.82l-1.49,1.77a2.78,2.78,0,0,1-1.74,1.12,3.34,3.34,0,0,1-1.79-.31,2.79,2.79,0,0,1-1.14-.85l.53-.34a2.25,2.25,0,0,0,1,.77,1.75,1.75,0,0,0,2.21-.46l.28-.34h0a2.25,2.25,0,0,1-1.72-.07,1.34,1.34,0,0,1-.51-2.25,2.8,2.8,0,0,1,3.2-.8c.72.31.88.76.84,1.09h0l.42-.44Zm-1.79.86a.92.92,0,0,0,.17-.27.82.82,0,0,0-.56-1,1.87,1.87,0,0,0-2.18.61c-.5.59-.51,1.27.3,1.63a1.66,1.66,0,0,0,1.5-.11,1,1,0,0,0,.31-.27Z" transform="translate(-868.14 -644.83)"/><path class="cls-2" d="M929.3,720.71l-.77,1.79a10.34,10.34,0,0,1-.51,1.11h0c.35-.26.77-.53,1.19-.8l2-1.26.65.28-.65,1.82a12.26,12.26,0,0,1-.48,1.17h0A14.35,14.35,0,0,1,932,724l1.92-1.28.76.34-4,2.46-.69-.31.6-1.74a9.61,9.61,0,0,1,.48-1.17h0c-.41.32-.81.58-1.23.85l-1.9,1.15-.69-.31,1.32-3.61Z" transform="translate(-868.14 -644.83)"/><path class="cls-2" d="M936.65,722l.78.34-1.66,1.93h0a2.31,2.31,0,0,1,.89-.15,2.51,2.51,0,0,1,.94.2c.58.25,1.28.91.36,2l-1.58,1.83-.78-.35,1.52-1.76c.43-.5.54-1-.2-1.36a1.75,1.75,0,0,0-1.52.1,1.05,1.05,0,0,0-.28.24l-1.59,1.86-.77-.35Z" transform="translate(-868.14 -644.83)"/><path class="cls-2" d="M942,725.07a.67.67,0,0,1-.8.13c-.28-.12-.35-.36-.18-.56a.7.7,0,0,1,.8-.13C942.1,724.64,942.15,724.87,942,725.07Zm-4.31,3.58,2.67-3.09.79.35L938.45,729Z" transform="translate(-868.14 -644.83)"/><path class="cls-2" d="M944.19,726l-.79.89,1.15.51-.38.43-1.14-.51L941.57,729c-.33.38-.37.66.07.86a3.65,3.65,0,0,0,.49.17l-.33.43a3,3,0,0,1-.77-.23c-.37-.17-.59-.38-.64-.62s.07-.57.39-.94l1.47-1.69-.67-.29.37-.43.68.29.65-.74Z" transform="translate(-868.14 -644.83)"/><path class="cls-2" d="M944.39,729.63c-.65.77-.24,1.39.56,1.75a4.42,4.42,0,0,0,1.36.39l-.22.46a5.56,5.56,0,0,1-1.63-.46c-1.35-.61-1.61-1.59-.79-2.53a3.08,3.08,0,0,1,3.54-.76,1.31,1.31,0,0,1,.54,2.28,2.74,2.74,0,0,1-.26.25Zm2.71.64a.8.8,0,0,0-.31-1.41,2,2,0,0,0-2,.37Z" transform="translate(-868.14 -644.83)"/><path class="cls-2" d="M948.61,730.72c.65.29,1,.08,1.17-.14a4.29,4.29,0,0,0,.4-.58,4.57,4.57,0,0,1,.41-.57,1.71,1.71,0,0,1,2.1-.26l.2.08-.32.36-.17-.07a1,1,0,0,0-1.23.24,2.77,2.77,0,0,0-.34.48,3,3,0,0,1-.38.52,1.23,1.23,0,0,1-1.28.41h0c.35.26.41.59,0,1a5.34,5.34,0,0,1-.5.46,4.06,4.06,0,0,0-.48.43c-.31.36-.28.65.24.89l.16.07-.31.35-.2-.08c-.76-.35-1.12-.83-.55-1.48a5.07,5.07,0,0,1,.54-.49,6.43,6.43,0,0,0,.54-.49c.18-.2.33-.52-.33-.81Z" transform="translate(-868.14 -644.83)"/><path class="cls-2" d="M936.76,738.8l.28-.41h0a2.59,2.59,0,0,1-1.7-.16c-.86-.4-.93-1-.54-1.47.63-.73,1.9-.71,3.56.06l0-.06c.22-.26.52-.75-.36-1.16a3.36,3.36,0,0,0-1.32-.28l.15-.45a4.1,4.1,0,0,1,1.64.38c1.32.6,1.09,1.38.55,2l-1,1.14a4.84,4.84,0,0,0-.57.76Zm1.25-1.6c-.84-.41-1.9-.74-2.41-.16-.32.36-.13.68.27.87a1.65,1.65,0,0,0,1.48,0,1,1,0,0,0,.19-.15Z" transform="translate(-868.14 -644.83)"/><path class="cls-2" d="M942.61,735.21l.8.36-4,4.48-.78-.37Z" transform="translate(-868.14 -644.83)"/><path class="cls-2" d="M945.14,737.16a.7.7,0,0,1-.82.11c-.28-.13-.34-.37-.17-.56a.69.69,0,0,1,.81-.12C945.26,736.72,945.31,737,945.14,737.16Zm-4.36,3.5,2.7-3,.8.36-2.71,3Z" transform="translate(-868.14 -644.83)"/><path class="cls-2" d="M949.44,740.34c-.22.21-.46.45-.8.83L947,743a2.91,2.91,0,0,1-1.88,1.1,3.79,3.79,0,0,1-1.93-.39,3.09,3.09,0,0,1-1.23-.93l.58-.32a2.52,2.52,0,0,0,1.07.83,1.88,1.88,0,0,0,2.37-.4l.3-.34h0a2.51,2.51,0,0,1-1.86-.14,1.39,1.39,0,0,1-.55-2.35,3,3,0,0,1,3.44-.72c.78.36.95.83.91,1.17h0l.46-.45Zm-1.93.83a.88.88,0,0,0,.18-.28.87.87,0,0,0-.6-1.1,2,2,0,0,0-2.35.55,1,1,0,0,0,.32,1.7,1.85,1.85,0,0,0,1.62,0,1.54,1.54,0,0,0,.33-.27Z" transform="translate(-868.14 -644.83)"/><path class="cls-2" d="M950,741.75c.28-.32.51-.58.71-.85l.72.33-.41.53h0a2.71,2.71,0,0,1,2,.1,1.16,1.16,0,0,1,.4,2l-1.67,1.84-.82-.38,1.61-1.77c.45-.5.56-1-.22-1.39a1.84,1.84,0,0,0-1.61.06,1.32,1.32,0,0,0-.3.24l-1.66,1.84-.81-.37Z" transform="translate(-868.14 -644.83)"/><path class="cls-2" d="M956.76,745.34l-.38.41-2.33-1.07.38-.41Z" transform="translate(-868.14 -644.83)"/><path class="cls-2" d="M959.52,749.21a5,5,0,0,1-1.5-.44c-1.38-.64-1.7-1.69-.83-2.63a3.45,3.45,0,0,1,4-.51,3.2,3.2,0,0,1,1,.69l-.6.35a2.17,2.17,0,0,0-.84-.59,2.32,2.32,0,0,0-2.72.42c-.66.72-.38,1.47.53,1.9a3.84,3.84,0,0,0,1.17.32Z" transform="translate(-868.14 -644.83)"/><path class="cls-2" d="M966.05,750.14a3.4,3.4,0,0,1-3.88.57c-1.26-.59-1.66-1.65-.75-2.63a3.35,3.35,0,0,1,3.86-.59C966.64,748.11,967,749.18,966.05,750.14Zm-3.76-1.69a1.07,1.07,0,0,0,.31,1.85,2.29,2.29,0,0,0,2.55-.55c.5-.53.73-1.38-.29-1.85A2.25,2.25,0,0,0,962.29,748.45Z" transform="translate(-868.14 -644.83)"/><path class="cls-2" d="M967.79,750c.3-.32.54-.6.76-.87l.76.35-.43.54h0a3,3,0,0,1,2.14.14c.67.3,1.46,1,.43,2.11l-1.77,1.87-.87-.4,1.71-1.8c.48-.51.59-1.06-.23-1.44a2,2,0,0,0-1.72,0,1.3,1.3,0,0,0-.31.24l-1.76,1.87-.86-.4Z" transform="translate(-868.14 -644.83)"/><path class="cls-2" d="M976,751.18l-.87.91,1.27.58-.42.44-1.26-.58-1.62,1.69c-.38.39-.42.69.07.92a3.3,3.3,0,0,0,.55.19l-.37.45a3.59,3.59,0,0,1-.85-.28,1.18,1.18,0,0,1-.72-.68c-.09-.29.09-.61.44-1l1.63-1.72-.75-.34.42-.44.75.35.72-.76Z" transform="translate(-868.14 -644.83)"/><path class="cls-2" d="M976.21,755c-.72.78-.26,1.46.63,1.87a5.59,5.59,0,0,0,1.51.47l-.24.48a6.83,6.83,0,0,1-1.82-.57c-1.5-.69-1.78-1.74-.87-2.69a3.49,3.49,0,0,1,3.93-.65c1.62.74,1.16,1.85.6,2.43a1.78,1.78,0,0,1-.29.25Zm3,.8c.37-.36.67-1-.34-1.51a2.21,2.21,0,0,0-2.26.31Z" transform="translate(-868.14 -644.83)"/><path class="cls-2" d="M981.61,756.3c.32-.33.57-.6.8-.88l.8.37-.46.55h0a3.14,3.14,0,0,1,2.24.16c.69.32,1.52,1.08.45,2.17l-1.86,1.89-.9-.42,1.78-1.83c.5-.51.62-1.07-.24-1.47a2.14,2.14,0,0,0-1.79,0,1.46,1.46,0,0,0-.33.24l-1.85,1.9-.89-.42Z" transform="translate(-868.14 -644.83)"/><path class="cls-2" d="M990.19,757.65l-.9.92,1.32.61-.43.44-1.33-.61-1.69,1.72c-.39.39-.44.7.08.93a2.42,2.42,0,0,0,.57.21l-.39.45a3.29,3.29,0,0,1-.89-.3,1.18,1.18,0,0,1-.75-.7c-.09-.29.09-.61.46-1L988,758.6l-.79-.36.44-.44.78.36.76-.77Z" transform="translate(-868.14 -644.83)"/><path class="cls-2" d="M990.92,760.08a.94.94,0,0,1,1-.12c.37.17.45.45.22.7a1,1,0,0,1-1,.12C990.76,760.61,990.69,760.32,990.92,760.08Zm-2.31,2.33a.92.92,0,0,1,1-.12c.37.17.44.45.21.7a.92.92,0,0,1-1,.11C988.46,762.93,988.38,762.64,988.61,762.41Z" transform="translate(-868.14 -644.83)"/><path class="cls-2" d="M996.74,766.5a6.21,6.21,0,0,1-1.68-.51c-1.56-.73-1.92-1.85-.94-2.82a4.06,4.06,0,0,1,4.51-.42,3.66,3.66,0,0,1,1.15.77l-.67.35a2.66,2.66,0,0,0-1-.66,2.71,2.71,0,0,0-3.06.37c-.74.74-.43,1.55.6,2A4.38,4.38,0,0,0,997,766Z" transform="translate(-868.14 -644.83)"/><path class="cls-2" d="M999.71,765.85c-.78.8-.28,1.51.68,1.95a6,6,0,0,0,1.63.52l-.27.49a7.4,7.4,0,0,1-2-.62c-1.62-.75-1.92-1.84-.94-2.81a3.81,3.81,0,0,1,4.23-.6c1.74.8,1.26,1.94.65,2.53a3.87,3.87,0,0,1-.31.26Zm3.25.88c.39-.36.72-1.07-.37-1.56a2.45,2.45,0,0,0-2.44.27Z" transform="translate(-868.14 -644.83)"/><path class="cls-2" d="M1005.53,767.29c.34-.33.61-.61.86-.9l.86.4-.49.56h0a3.54,3.54,0,0,1,2.41.21c.75.34,1.64,1.14.48,2.26l-2,1.93-1-.46,1.92-1.86c.54-.52.67-1.11-.26-1.53a2.35,2.35,0,0,0-1.93,0,1.15,1.15,0,0,0-.35.24l-2,1.94-1-.45Z" transform="translate(-868.14 -644.83)"/><path class="cls-2" d="M1014.78,768.85l-1,.94,1.43.65-.47.45-1.43-.65L1011.5,772c-.41.4-.46.72.09,1a3.89,3.89,0,0,0,.62.23l-.42.46a3.9,3.9,0,0,1-1-.33,1.33,1.33,0,0,1-.81-.74c-.1-.3.1-.64.5-1l1.84-1.77-.85-.39.47-.45.85.39.81-.78Z" transform="translate(-868.14 -644.83)"/><path class="cls-2" d="M1015,772.92c-.81.81-.3,1.54.71,2a6.11,6.11,0,0,0,1.71.55l-.28.5a8.12,8.12,0,0,1-2-.65c-1.69-.79-2-1.91-1-2.89a4.09,4.09,0,0,1,4.45-.57c1.82.83,1.31,2,.67,2.6-.13.12-.25.2-.32.26Zm3.4.94c.41-.37.76-1.09-.38-1.61a2.62,2.62,0,0,0-2.56.25Z" transform="translate(-868.14 -644.83)"/><path class="cls-2" d="M1021,774.59c.41-.38.75-.72,1-1l.89.41-.65.66.05,0a3,3,0,0,1,2.33,0,1.63,1.63,0,0,1,.27.15l-.6.57a1.44,1.44,0,0,0-.33-.18,2.35,2.35,0,0,0-2.19.13,2.46,2.46,0,0,0-.34.25l-1.85,1.74-1-.46Z" transform="translate(-868.14 -644.83)"/><path class="cls-2" d="M1021,779.17a16.67,16.67,0,0,0,2.42-1.29l1.21.46a18.21,18.21,0,0,1-2.88,1.12Zm4.31-3.33a1.09,1.09,0,0,1,1.15-.11c.43.2.51.5.24.75a1.06,1.06,0,0,1-1.15.1C1025.1,776.39,1025,776.08,1025.27,775.84Z" transform="translate(-868.14 -644.83)"/><path class="cls-2" d="M906.61,734.79c.18-.19.43-.47.65-.73l2.9-3.51.71.33-1.52,1.83h0a2.23,2.23,0,0,1,1.78.1,1.33,1.33,0,0,1,.41,2.27,2.54,2.54,0,0,1-3,.71,1.23,1.23,0,0,1-.85-1.16l0,0-.43.47Zm1.68-.81a1.13,1.13,0,0,0-.12.21.88.88,0,0,0,.54,1.13,1.72,1.72,0,0,0,2.11-.55c.49-.58.5-1.27-.26-1.64a1.66,1.66,0,0,0-1.62.14,1.71,1.71,0,0,0-.21.19Z" transform="translate(-868.14 -644.83)"/><path class="cls-2" d="M913.38,738.07l.26-.4h0a2.27,2.27,0,0,1-1.57-.15c-.79-.38-.85-1-.5-1.41.59-.7,1.76-.68,3.28,0l0-.06c.21-.24.48-.72-.33-1.1a2.89,2.89,0,0,0-1.21-.28l.13-.42a3.51,3.51,0,0,1,1.52.36c1.21.57,1,1.33.5,1.91l-.92,1.09a4.78,4.78,0,0,0-.52.73Zm1.15-1.54c-.78-.39-1.75-.71-2.22-.15-.29.34-.12.66.25.83a1.43,1.43,0,0,0,1.36,0,.66.66,0,0,0,.18-.14Z" transform="translate(-868.14 -644.83)"/><path class="cls-2" d="M918.08,740.18a4,4,0,0,1-1.3-.39c-1.2-.58-1.48-1.55-.72-2.44a3.14,3.14,0,0,1,4.36.1l-.52.34a1.8,1.8,0,0,0-.73-.55,1.94,1.94,0,0,0-2.36.43,1.05,1.05,0,0,0,.46,1.76,3.09,3.09,0,0,0,1,.29Z" transform="translate(-868.14 -644.83)"/><path class="cls-2" d="M920.92,739.46h0l.64-.16,2.07-.45.9.43-2.62.46.31,2.59-.9-.43-.2-2.08-.63.12-1,1.1-.72-.35,3.68-4.31.74.34Z" transform="translate(-868.14 -644.83)"/><path class="cls-2" d="M928.88,741.35c-.21.21-.43.44-.75.8l-1.49,1.71a2.63,2.63,0,0,1-1.75,1.06,3.42,3.42,0,0,1-1.8-.37,2.94,2.94,0,0,1-1.14-.9l.53-.32a2.48,2.48,0,0,0,1,.81,1.71,1.71,0,0,0,2.21-.38l.29-.33h0a2.3,2.3,0,0,1-1.74-.14,1.36,1.36,0,0,1-.5-2.27,2.76,2.76,0,0,1,3.21-.68c.72.34.88.8.84,1.13h0l.42-.43Zm-1.8.8a.92.92,0,0,0,.17-.27.85.85,0,0,0-.56-1.07,1.85,1.85,0,0,0-2.19.53,1,1,0,0,0,.3,1.64,1.65,1.65,0,0,0,1.51-.05,1.31,1.31,0,0,0,.31-.25Z" transform="translate(-868.14 -644.83)"/><path class="cls-2" d="M929.25,742.83c.3-.35.55-.65.77-.94l.66.32-.48.59,0,0a1.93,1.93,0,0,1,1.73-.1.77.77,0,0,1,.2.13l-.45.51a1.25,1.25,0,0,0-.24-.15,1.58,1.58,0,0,0-1.63.21,1.79,1.79,0,0,0-.26.23l-1.37,1.58-.75-.36Z" transform="translate(-868.14 -644.83)"/><path class="cls-2" d="M935.36,746.52a3,3,0,0,1-3.51.56c-1.14-.55-1.49-1.56-.67-2.5a2.94,2.94,0,0,1,3.48-.58C935.89,744.59,936.17,745.61,935.36,746.52ZM932,744.94a1,1,0,0,0,.27,1.75,2,2,0,0,0,2.31-.53c.44-.51.65-1.32-.26-1.76A2,2,0,0,0,932,744.94Z" transform="translate(-868.14 -644.83)"/><path class="cls-2" d="M939.31,749.42c-.28.31-.51.58-.7.83l-.69-.34.39-.5h0a2.61,2.61,0,0,1-1.91-.13c-.67-.33-1.24-1-.31-2l1.55-1.74.78.37-1.47,1.65c-.51.57-.6,1.07.11,1.41a1.75,1.75,0,0,0,1.47,0,1,1,0,0,0,.32-.24l1.64-1.84.79.38Z" transform="translate(-868.14 -644.83)"/><path class="cls-2" d="M941.85,748.68a10.39,10.39,0,0,0,.69-.83l.71.33-.41.52h0a2.62,2.62,0,0,1,2,.12,1.16,1.16,0,0,1,.4,2l-1.63,1.79-.79-.38,1.56-1.73c.44-.49.54-1-.21-1.38a1.76,1.76,0,0,0-1.57.05,1.22,1.22,0,0,0-.29.23l-1.62,1.8-.79-.38Z" transform="translate(-868.14 -644.83)"/><path class="cls-2" d="M952.8,750.69l-3.37,3.66c-.24.27-.51.58-.67.8l-.73-.36.44-.53h0a2.66,2.66,0,0,1-2.05-.14,1.43,1.43,0,0,1-.5-2.44,3,3,0,0,1,3.47-.67c.69.32,1,.76.93,1.1h0L952,750.3ZM949.55,753a1,1,0,0,0,.17-.25c.21-.41,0-.91-.58-1.2a2.06,2.06,0,0,0-2.4.53,1,1,0,0,0,.29,1.75,1.88,1.88,0,0,0,1.78-.09,1.09,1.09,0,0,0,.26-.22Z" transform="translate(-868.14 -644.83)"/><path class="cls-2" d="M953.72,754.8l-.38.41L951,754.1l.37-.4Z" transform="translate(-868.14 -644.83)"/><path class="cls-2" d="M956.45,758.7a5.07,5.07,0,0,1-1.48-.46c-1.37-.66-1.68-1.71-.82-2.64a3.41,3.41,0,0,1,4-.44,3.16,3.16,0,0,1,1,.71l-.59.34A2.54,2.54,0,0,0,955,756c-.66.7-.38,1.46.52,1.89a3.58,3.58,0,0,0,1.16.34Z" transform="translate(-868.14 -644.83)"/><path class="cls-2" d="M962.91,759.72a3.32,3.32,0,0,1-3.84.51c-1.25-.61-1.64-1.67-.74-2.63a3.3,3.3,0,0,1,3.82-.53C963.5,757.71,963.8,758.79,962.91,759.72ZM959.2,758a1.06,1.06,0,0,0,.3,1.84,2.24,2.24,0,0,0,2.53-.51,1.06,1.06,0,0,0-.29-1.84A2.2,2.2,0,0,0,959.2,758Z" transform="translate(-868.14 -644.83)"/><path class="cls-2" d="M966.79,757.29l.86.41-4.28,4.5-.85-.41Z" transform="translate(-868.14 -644.83)"/><path class="cls-2" d="M970.6,763.4a3.44,3.44,0,0,1-3.94.49c-1.28-.62-1.69-1.7-.76-2.66a3.4,3.4,0,0,1,3.92-.51C971.19,761.37,971.51,762.46,970.6,763.4Zm-3.81-1.78a1.07,1.07,0,0,0,.31,1.87,2.31,2.31,0,0,0,2.59-.49,1.07,1.07,0,0,0-.3-1.87A2.25,2.25,0,0,0,966.79,761.62Z" transform="translate(-868.14 -644.83)"/><path class="cls-2" d="M972.24,763.38c.35-.37.64-.68.89-1l.77.37-.56.62,0,0a2.37,2.37,0,0,1,2,0l.24.14-.52.53-.28-.16a1.9,1.9,0,0,0-1.89.16,3.07,3.07,0,0,0-.29.24l-1.59,1.64-.86-.41Z" transform="translate(-868.14 -644.83)"/><path class="cls-2" d="M975.83,764.43a.88.88,0,0,1,1-.11c.36.16.43.44.21.68a.87.87,0,0,1-1,.11C975.69,764.94,975.62,764.66,975.83,764.43Zm-2.19,2.25a.88.88,0,0,1,1-.11c.35.17.42.45.2.69a.87.87,0,0,1-1,.1C973.49,767.19,973.42,766.91,973.64,766.68Z" transform="translate(-868.14 -644.83)"/><path class="cls-2" d="M978,769.24l1.5-1.12-.83-.4.37-.38.93.45L981,767l-.88-.42.38-.38,1,.46,1.48-1.1.6.28-1.48,1.11,1.08.51,1.49-1.11.61.29-1.48,1.11.84.41-.38.38-.94-.45-1.11.84.89.43-.38.38-1-.47-1.51,1.13-.61-.3,1.51-1.13-1.06-.51-1.51,1.13Zm3.65-.65,1.12-.84-1.07-.51-1.12.84Z" transform="translate(-868.14 -644.83)"/><path class="cls-2" d="M985.93,773.1l2.7-2.69-2.12-1-2.69,2.68-.89-.43L985.6,769l-.71-.33.44-.44.7.34.11-.1a2.6,2.6,0,0,1,1.63-.81,3.05,3.05,0,0,1,1.57.32,1.8,1.8,0,0,1,.61.45l-.61.33a1.73,1.73,0,0,0-.47-.33,1.45,1.45,0,0,0-1.79.44l-.14.13,2.13,1,.15-.15a2.66,2.66,0,0,1,1.7-.81,3.19,3.19,0,0,1,1.54.29,2.52,2.52,0,0,1,.7.47l-.56.39a1.77,1.77,0,0,0-.54-.36,1.6,1.6,0,0,0-1.91.44l-.17.17,1.24.59-.44.43-1.23-.58-2.7,2.69Z" transform="translate(-868.14 -644.83)"/><path class="cls-2" d="M989,774.58l2.73-2.7-.72-.34.44-.44.72.35.15-.15a2.67,2.67,0,0,1,1.71-.82,3.14,3.14,0,0,1,1.56.3,2.87,2.87,0,0,1,.72.47l-.58.39a1.69,1.69,0,0,0-.53-.36,1.59,1.59,0,0,0-1.93.44l-.17.17,1.24.59-.44.43-1.24-.59-2.74,2.7Z" transform="translate(-868.14 -644.83)"/><path class="cls-2" d="M990.92,776.69a15.25,15.25,0,0,0,2.21-1.24l1.1.44a16.87,16.87,0,0,1-2.62,1.07Zm3.93-3.19a1,1,0,0,1,1-.11c.39.18.47.47.22.71a.93.93,0,0,1-1,.1C994.7,774,994.62,773.73,994.85,773.5Z" transform="translate(-868.14 -644.83)"/><path class="cls-2" d="M900.17,739.42c-.56-.28-.84-.06-1,.12a3.92,3.92,0,0,0-.33.5,3.16,3.16,0,0,1-.33.51,1.32,1.32,0,0,1-1.77.23l-.16-.08.26-.32.13.07a.75.75,0,0,0,1-.2,3,3,0,0,0,.29-.44,3.24,3.24,0,0,1,.31-.48,1,1,0,0,1,1.08-.36h0c-.29-.24-.35-.53,0-.91a3.35,3.35,0,0,1,.43-.41,4.78,4.78,0,0,0,.39-.39c.26-.32.25-.58-.2-.81l-.14-.07.27-.32.15.08c.67.32,1,.79.51,1.33a5,5,0,0,1-.47.45,5,5,0,0,0-.46.46c-.17.21-.28.48.27.75Z" transform="translate(-868.14 -644.83)"/><path class="cls-2" d="M891.91,746.76a.6.6,0,0,1,.75-.12.37.37,0,0,1,.15.59.6.6,0,0,1-.75.12A.36.36,0,0,1,891.91,746.76Z" transform="translate(-868.14 -644.83)"/><path class="cls-2" d="M893.36,747.94c.17-.18.42-.45.62-.7l2.77-3.36.67.34L896,746h0a2,2,0,0,1,1.69.14,1.34,1.34,0,0,1,.39,2.23,2.36,2.36,0,0,1-2.9.62,1.23,1.23,0,0,1-.8-1.16h0l-.4.44Zm1.61-.75a.59.59,0,0,0-.12.2.89.89,0,0,0,.52,1.11,1.6,1.6,0,0,0,2-.49,1,1,0,0,0-.25-1.6,1.55,1.55,0,0,0-1.54.09.93.93,0,0,0-.21.19Z" transform="translate(-868.14 -644.83)"/><path class="cls-2" d="M903.32,749.1c-.18.19-.39.41-.68.75l-1.36,1.62a2.33,2.33,0,0,1-1.6,1,3,3,0,0,1-1.64-.38,2.76,2.76,0,0,1-1-.87l.49-.3a2.29,2.29,0,0,0,.91.79,1.51,1.51,0,0,0,2-.34l.26-.31h0a2,2,0,0,1-1.59-.15,1.34,1.34,0,0,1-.46-2.18,2.41,2.41,0,0,1,2.93-.61c.66.33.81.77.78,1.09h0l.39-.41Zm-1.64.74a1,1,0,0,0,.16-.25.83.83,0,0,0-.51-1,1.63,1.63,0,0,0-2,.47.94.94,0,0,0,.28,1.58,1.47,1.47,0,0,0,1.38,0,1.35,1.35,0,0,0,.28-.24Z" transform="translate(-868.14 -644.83)"/><path class="cls-2" d="M904.72,749.81l-.7,1.69a8.9,8.9,0,0,1-.47,1l0,0c.32-.24.7-.48,1.08-.71l1.85-1.11.58.3-.59,1.71c-.15.41-.29.76-.44,1.09h0a11.55,11.55,0,0,1,1.07-.75l1.76-1.13.7.36L906,754.48l-.63-.33.55-1.64a8.29,8.29,0,0,1,.44-1.09h0a13,13,0,0,1-1.13.75l-1.74,1-.63-.32,1.21-3.39Z" transform="translate(-868.14 -644.83)"/><path class="cls-2" d="M911.45,751.36l.72.36-1.52,1.77h0a2,2,0,0,1,.82-.11,2.56,2.56,0,0,1,.85.23,1.12,1.12,0,0,1,.33,1.92l-1.44,1.67-.71-.37,1.39-1.61c.39-.46.49-1-.19-1.31a1.51,1.51,0,0,0-1.39,0,.87.87,0,0,0-.26.22l-1.45,1.7-.71-.37Z" transform="translate(-868.14 -644.83)"/><path class="cls-2" d="M916.33,754.6a.59.59,0,0,1-.73.09c-.26-.13-.32-.37-.16-.54a.61.61,0,0,1,.73-.1C916.44,754.19,916.49,754.42,916.33,754.6Zm-3.94,3.22,2.45-2.83.72.37-2.46,2.83Z" transform="translate(-868.14 -644.83)"/><path class="cls-2" d="M918.35,755.61l-.71.81,1,.54-.34.39-1.05-.53L916,758.35c-.31.35-.34.62.06.83a2.42,2.42,0,0,0,.45.18l-.3.4a2.82,2.82,0,0,1-.7-.26,1,1,0,0,1-.59-.62c-.08-.26.07-.55.36-.88l1.34-1.55-.61-.31.34-.4.62.32.59-.68Z" transform="translate(-868.14 -644.83)"/><path class="cls-2" d="M918.54,759.08c-.6.71-.22,1.32.51,1.7a4,4,0,0,0,1.25.43l-.2.44a5.22,5.22,0,0,1-1.5-.52c-1.24-.65-1.47-1.6-.72-2.45a2.67,2.67,0,0,1,3.24-.57,1.3,1.3,0,0,1,.49,2.21,1.45,1.45,0,0,1-.24.22Zm2.47.74a.79.79,0,0,0-.28-1.37,1.69,1.69,0,0,0-1.86.27Z" transform="translate(-868.14 -644.83)"/><path class="cls-2" d="M924.63,761.36c.33-.36.58-.67.8-1l.67.35-.4.51h0a2.56,2.56,0,0,1,2,.2,1.4,1.4,0,0,1,.45,2.36,2.67,2.67,0,0,1-3.26.56,1.34,1.34,0,0,1-.86-1.1h0l-1.38,1.55-.73-.39Zm.06,1.15a.83.83,0,0,0-.15.23.92.92,0,0,0,.58,1.18,1.82,1.82,0,0,0,2.24-.45,1,1,0,0,0-.28-1.7,1.76,1.76,0,0,0-1.71.06,1.12,1.12,0,0,0-.24.19Z" transform="translate(-868.14 -644.83)"/><path class="cls-2" d="M930.88,764.69c.62.32.91.13,1.1-.08a4,4,0,0,0,.39-.53,2.78,2.78,0,0,1,.38-.54,1.57,1.57,0,0,1,2-.13l.18.09-.3.33-.16-.08a.87.87,0,0,0-1.16.16,3.76,3.76,0,0,0-.32.46,2.92,2.92,0,0,1-.35.48,1.08,1.08,0,0,1-1.21.32h0a.59.59,0,0,1,0,1,3.63,3.63,0,0,1-.47.42,3.55,3.55,0,0,0-.45.4c-.3.33-.27.61.22.87l.16.08-.3.32-.18-.09c-.72-.38-1.06-.87-.52-1.46a3.73,3.73,0,0,1,.51-.45,3.63,3.63,0,0,0,.5-.45c.17-.18.31-.48-.3-.8Z" transform="translate(-868.14 -644.83)"/><path class="cls-2" d="M911.16,764.31c.25-.29.45-.53.63-.77l.62.33-.36.46,0,0a2,2,0,0,1,1.68.14,1,1,0,0,1,.63,1.15h0a2.34,2.34,0,0,1,.76-.13,2.11,2.11,0,0,1,1.05.27c.53.28,1.1.94.24,1.91L915,769.34l-.71-.38,1.4-1.57c.47-.54.48-1-.11-1.32a1.37,1.37,0,0,0-1.26,0,1.35,1.35,0,0,0-.28.22L912.54,768l-.7-.37,1.47-1.66c.39-.45.39-.92-.16-1.21a1.45,1.45,0,0,0-1.32,0,.85.85,0,0,0-.28.22l-1.46,1.67-.69-.37Z" transform="translate(-868.14 -644.83)"/><path class="cls-2" d="M918.4,771.16l.26-.38h0a2.32,2.32,0,0,1-1.59-.25c-.81-.43-.87-1-.51-1.45.6-.67,1.79-.58,3.34.25l0-.06c.21-.23.49-.7-.34-1.13a3.08,3.08,0,0,0-1.23-.35l.13-.43a4,4,0,0,1,1.55.46c1.23.65,1,1.4.51,2l-.94,1.05a3.79,3.79,0,0,0-.53.7Zm1.17-1.48c-.79-.44-1.78-.82-2.26-.28-.3.33-.12.65.25.85a1.53,1.53,0,0,0,1.39.06.94.94,0,0,0,.19-.14Z" transform="translate(-868.14 -644.83)"/><path class="cls-2" d="M923.05,769.5l0,.92c0,.23,0,.45,0,.68h0c.28-.1.55-.17.82-.25l1.12-.29.81.43-2.63.61.12,2.22-.84-.46,0-1c0-.24,0-.47,0-.72h0c-.29.1-.57.17-.87.26l-1.15.32-.81-.44,2.72-.65-.14-2.11Z" transform="translate(-868.14 -644.83)"/><path class="cls-2" d="M927.37,773.36l-.34.38-2.11-1.13.34-.37Z" transform="translate(-868.14 -644.83)"/><path class="cls-2" d="M929.48,772.91l-.76,1.73a11.62,11.62,0,0,1-.51,1.06h0c.36-.23.77-.46,1.19-.69l2-1.08.64.34-.65,1.77a12.14,12.14,0,0,1-.48,1.12h0a11.44,11.44,0,0,1,1.17-.74l1.92-1.11.76.41-4,2.1-.69-.37.59-1.69a9.19,9.19,0,0,1,.49-1.13h0a13.5,13.5,0,0,1-1.24.74l-1.9,1-.69-.36,1.32-3.49Z" transform="translate(-868.14 -644.83)"/><path class="cls-2" d="M937.21,775.81a.66.66,0,0,1-.79.06c-.28-.15-.34-.39-.18-.57a.68.68,0,0,1,.79-.07C937.32,775.39,937.38,775.63,937.21,775.81ZM933,779l2.63-2.83.77.41-2.64,2.84Z" transform="translate(-868.14 -644.83)"/><path class="cls-2" d="M942.66,777.89l-3.25,3.45c-.24.25-.5.55-.66.75l-.7-.37.43-.52h0a2.62,2.62,0,0,1-2-.23,1.44,1.44,0,0,1-.48-2.42,2.83,2.83,0,0,1,3.36-.51c.66.35.91.8.89,1.13h0l1.61-1.71ZM939.52,780a1,1,0,0,0,.17-.24c.19-.39,0-.89-.57-1.2a1.93,1.93,0,0,0-2.32.41,1,1,0,0,0,.28,1.73,1.8,1.8,0,0,0,1.73,0,1,1,0,0,0,.24-.21Z" transform="translate(-868.14 -644.83)"/><path class="cls-2" d="M944.46,779.61l-.78.82,1.14.61-.37.4-1.15-.61-1.46,1.54c-.33.35-.37.63.07.87a2.46,2.46,0,0,0,.5.21l-.34.41a3,3,0,0,1-.77-.31,1.16,1.16,0,0,1-.64-.67c-.08-.28.08-.57.39-.91l1.48-1.55-.68-.36.37-.4.68.36.65-.69Z" transform="translate(-868.14 -644.83)"/><path class="cls-2" d="M947,780.18l.8.42-1.71,1.8h0a2.35,2.35,0,0,1,.93-.06,2.8,2.8,0,0,1,1,.29,1.19,1.19,0,0,1,.38,2.06l-1.64,1.7L946,786l1.57-1.64c.45-.47.56-1-.21-1.41a1.85,1.85,0,0,0-1.57,0,.89.89,0,0,0-.3.22l-1.64,1.72-.8-.42Z" transform="translate(-868.14 -644.83)"/><path class="cls-2" d="M950.18,784.6a.79.79,0,0,1,.92-.08c.33.17.39.44.19.67a.8.8,0,0,1-.92.07C950.05,785.09,950,784.81,950.18,784.6Zm-2,2.09a.77.77,0,0,1,.91-.08c.33.18.39.45.19.67a.77.77,0,0,1-.91.07C948,787.18,948,786.9,948.16,786.69Z" transform="translate(-868.14 -644.83)"/><path class="cls-2" d="M956.78,786.61h0l-1.42-.2.23-.48,1.79.25.71.38-3.81,3.88-.79-.43Z" transform="translate(-868.14 -644.83)"/><path class="cls-2" d="M962.59,791.85a3.4,3.4,0,0,1-4.2.89c-1.21-.65-1.32-1.79-.08-3.08a3.5,3.5,0,0,1,4.18-.89C963.81,789.47,963.83,790.61,962.59,791.85Zm-3.44-1.74c-1,1-1.07,1.84-.31,2.25s1.89.06,2.88-.94,1.19-1.8.31-2.26S960.19,789.05,959.15,790.11Z" transform="translate(-868.14 -644.83)"/><path class="cls-2" d="M968.64,792.81l-2.43-1.29-1.25.88a5.58,5.58,0,0,1,.54.25,3.24,3.24,0,0,1,1.15.94,1,1,0,0,1-.1,1.48,3.24,3.24,0,0,1-3.69.07,3.72,3.72,0,0,1-1.32-1.07l.61-.29a3.38,3.38,0,0,0,1.13.94,2.08,2.08,0,0,0,2.34-.05c.5-.51.31-1.16-1-1.83a9.74,9.74,0,0,0-.92-.43l2.29-1.66,3.05,1.61Z" transform="translate(-868.14 -644.83)"/><path class="cls-2" d="M972.66,797.21a3.55,3.55,0,0,1-4.34.87c-1.25-.67-1.37-1.84-.08-3.14a3.64,3.64,0,0,1,4.31-.86C973.92,794.8,974,796,972.66,797.21Zm-3.56-1.8c-1,1-1.1,1.86-.32,2.29s2,.07,3-.93,1.23-1.82.32-2.3S970.19,794.34,969.1,795.41Z" transform="translate(-868.14 -644.83)"/><path class="cls-2" d="M973.72,797.83c.38-.38.67-.69.94-1l.79.42-.47.53h0a3.25,3.25,0,0,1,2.32.35c1.19.62,1.46,1.7.53,2.59a3.31,3.31,0,0,1-3.84.39c-.64-.35-1-.82-1-1.26h0l-1.62,1.58-.86-.47Zm.07,1.24a.94.94,0,0,0-.18.24c-.22.45,0,1,.68,1.33a2.22,2.22,0,0,0,2.65-.34,1.06,1.06,0,0,0-.33-1.86,2.28,2.28,0,0,0-2-.06,2.08,2.08,0,0,0-.29.19Z" transform="translate(-868.14 -644.83)"/><path class="cls-2" d="M980.74,800.07l0,1c0,.26,0,.5,0,.75h0l1-.22,1.36-.26,1,.52-3.19.53.15,2.44-1-.55,0-1a7.12,7.12,0,0,1,0-.8h0c-.35.09-.69.15-1.06.23l-1.39.28-1-.53,3.3-.56-.18-2.33Z" transform="translate(-868.14 -644.83)"/><path class="cls-2" d="M980.64,805.76a14.61,14.61,0,0,0,2.14-1.12l1.06.48a14.76,14.76,0,0,1-2.54.94Zm3.81-3a.88.88,0,0,1,1-.06c.38.19.45.48.21.71a.89.89,0,0,1-1,0C984.3,803.31,984.22,803,984.45,802.8Z" transform="translate(-868.14 -644.83)"/><path class="cls-2" d="M903.55,773.14l2-2.34-.54-.29.33-.38.54.3.12-.13a1.87,1.87,0,0,1,1.28-.71,2.05,2.05,0,0,1,1.16.26,2,2,0,0,1,.53.4l-.43.33a1.38,1.38,0,0,0-.39-.3,1.1,1.1,0,0,0-1.45.38l-.13.15.94.51-.34.37-.93-.51-2,2.34Z" transform="translate(-868.14 -644.83)"/><path class="cls-2" d="M910.41,774.88a2.57,2.57,0,0,1-3.21.38c-1-.58-1.37-1.56-.62-2.42a2.55,2.55,0,0,1,3.19-.4C910.9,773.06,911.15,774.05,910.41,774.88Zm-3.11-1.67a1,1,0,0,0,.26,1.69,1.73,1.73,0,0,0,2.11-.4,1,1,0,0,0-.24-1.69A1.7,1.7,0,0,0,907.3,773.21Z" transform="translate(-868.14 -644.83)"/><path class="cls-2" d="M911.85,774.77c.25-.28.44-.52.62-.76l.64.35-.37.48h0a2.22,2.22,0,0,1,1.77.2,1.14,1.14,0,0,1,.35,1.94l-1.46,1.63-.72-.4,1.41-1.57c.4-.45.49-.95-.19-1.32a1.52,1.52,0,0,0-1.42,0,1,1,0,0,0-.25.21l-1.46,1.64-.71-.4Z" transform="translate(-868.14 -644.83)"/><path class="cls-2" d="M918.61,776.2l-.71.79,1.05.57-.35.38-1-.57-1.34,1.48c-.31.34-.34.61.06.83a2.15,2.15,0,0,0,.45.2l-.3.39a2.64,2.64,0,0,1-.7-.28,1.09,1.09,0,0,1-.59-.65c-.08-.26.07-.54.36-.86l1.34-1.5-.61-.34.34-.38.62.34.59-.66Z" transform="translate(-868.14 -644.83)"/><path class="cls-2" d="M920.5,780l-.34.37-2.06-1.14.34-.36Z" transform="translate(-868.14 -644.83)"/><path class="cls-2" d="M919.86,782.2l2.17-2.37-.57-.32.35-.38.57.31.12-.13a2,2,0,0,1,1.36-.71,2.31,2.31,0,0,1,1.23.29,2.08,2.08,0,0,1,.57.43l-.46.33a1.45,1.45,0,0,0-.42-.32,1.16,1.16,0,0,0-1.53.37l-.14.15,1,.54-.35.38-1-.54-2.17,2.37Z" transform="translate(-868.14 -644.83)"/><path class="cls-2" d="M924.5,784.77l.26-.38h0a2.41,2.41,0,0,1-1.63-.29c-.83-.46-.89-1.08-.52-1.48.61-.67,1.82-.55,3.41.33l0-.05c.21-.23.5-.7-.35-1.16a3.22,3.22,0,0,0-1.26-.38l.14-.43a4.08,4.08,0,0,1,1.58.5c1.26.69,1,1.44.52,2l-1,1a3.89,3.89,0,0,0-.54.7Zm1.19-1.47c-.8-.46-1.82-.87-2.31-.34-.3.33-.12.66.26.87a1.54,1.54,0,0,0,1.42.09.94.94,0,0,0,.19-.14Z" transform="translate(-868.14 -644.83)"/><path class="cls-2" d="M928.2,783.77c.26-.29.47-.53.66-.77l.67.36-.39.47h0a2.27,2.27,0,0,1,1.79.21,1.08,1.08,0,0,1,.67,1.21h0a2.54,2.54,0,0,1,.81-.1,2.31,2.31,0,0,1,1.11.31,1.14,1.14,0,0,1,.26,2l-1.55,1.63-.74-.41,1.48-1.57c.5-.54.51-1-.12-1.37a1.49,1.49,0,0,0-1.33,0,1,1,0,0,0-.3.22l-1.61,1.71-.74-.41,1.55-1.66c.42-.45.42-.93-.16-1.25a1.55,1.55,0,0,0-1.41,0,1,1,0,0,0-.29.21l-1.55,1.67-.74-.4Z" transform="translate(-868.14 -644.83)"/><path class="cls-2" d="M937.79,786.69a.66.66,0,0,1-.8,0c-.27-.15-.33-.39-.17-.57a.66.66,0,0,1,.79,0C937.9,786.27,938,786.51,937.79,786.69Zm-4.25,3.1,2.63-2.79.78.43-2.64,2.79Z" transform="translate(-868.14 -644.83)"/><path class="cls-2" d="M939.5,786.83l.78.43-3.91,4.1-.78-.43Z" transform="translate(-868.14 -644.83)"/><path class="cls-2" d="M940.64,789.45l-.64,2.18a6.93,6.93,0,0,1-.27.73h0c.24-.13.54-.29.84-.43l2.45-1.18.84.47-3.12,1.34a8,8,0,0,1-3.16.92,3.36,3.36,0,0,1-1.27-.21l.22-.53a3.63,3.63,0,0,0,.91.14,3.27,3.27,0,0,0,1.2-.2.49.49,0,0,0,.18-.09.34.34,0,0,0,.07-.16l.87-3.46Z" transform="translate(-868.14 -644.83)"/><path class="cls-2" d="M944.19,792.11a.74.74,0,0,1,.9-.07c.31.17.38.44.18.66a.75.75,0,0,1-.9.06C944.05,792.59,944,792.31,944.19,792.11Zm-2,2a.74.74,0,0,1,.89-.06c.32.17.38.44.18.66a.73.73,0,0,1-.89,0C942.08,794.63,942,794.35,942.21,794.15Z" transform="translate(-868.14 -644.83)"/><path class="cls-2" d="M950.42,793l-1.54,1.32-.49-.28,1.22-1.48Z" transform="translate(-868.14 -644.83)"/><path class="cls-2" d="M951.52,793.7l.81.44-3.45,3.51,2.67,1.48-.42.43-3.47-1.93Z" transform="translate(-868.14 -644.83)"/><path class="cls-2" d="M954.51,801.44l.29-.4h0a2.85,2.85,0,0,1-1.8-.35c-.92-.51-1-1.17-.58-1.58.68-.68,2-.52,3.78.46l.06-.06c.23-.24.55-.71-.39-1.23a4,4,0,0,0-1.39-.44l.15-.44a4.71,4.71,0,0,1,1.75.57c1.4.77,1.15,1.55.58,2.12l-1.06,1a4.59,4.59,0,0,0-.61.72Zm1.32-1.51c-.89-.51-2-1-2.56-.43-.33.33-.13.69.29.92a1.79,1.79,0,0,0,1.57.13.62.62,0,0,0,.21-.13Z" transform="translate(-868.14 -644.83)"/><path class="cls-2" d="M961.18,799.43l-.82.82,1.21.67-.4.39-1.21-.66-1.54,1.53c-.36.35-.4.64.07.9a3.21,3.21,0,0,0,.52.23l-.35.41a3.45,3.45,0,0,1-.81-.34,1.3,1.3,0,0,1-.69-.72c-.08-.28.09-.58.42-.91l1.56-1.55-.72-.39.4-.4.72.39.68-.68Z" transform="translate(-868.14 -644.83)"/><path class="cls-2" d="M965.28,805.15a3.31,3.31,0,0,1-3.87.22c-1.26-.7-1.66-1.8-.75-2.7a3.27,3.27,0,0,1,3.85-.24C965.87,803.17,966.17,804.27,965.28,805.15Zm-3.75-2a1.09,1.09,0,0,0,.31,1.87,2.21,2.21,0,0,0,2.55-.32,1.08,1.08,0,0,0-.29-1.87A2.16,2.16,0,0,0,961.53,803.13Z" transform="translate(-868.14 -644.83)"/><path class="cls-2" d="M969.57,803.43l-1.63,1.34-.53-.29,1.3-1.51Z" transform="translate(-868.14 -644.83)"/><path class="cls-2" d="M964.21,808a12.36,12.36,0,0,0,2-1.08l1,.47a13,13,0,0,1-2.4.92Z" transform="translate(-868.14 -644.83)"/><path class="cls-2" d="M970.05,809.23a2.69,2.69,0,0,0,.93.84c.64.35,1.13.33,1.38.09s.15-.52-.35-1c-.67-.66-.78-1.17-.43-1.51a2.26,2.26,0,0,1,2.55.07,3.07,3.07,0,0,1,1,.83l-.61.26a2.34,2.34,0,0,0-.82-.71,1.06,1.06,0,0,0-1.22-.05c-.25.23-.07.5.41,1,.64.65.81,1.14.37,1.56s-1.56.49-2.7-.14a3.54,3.54,0,0,1-1.14-.94Z" transform="translate(-868.14 -644.83)"/><path class="cls-2" d="M976.24,813.5l.31-.4h0a3.23,3.23,0,0,1-1.94-.41c-1-.54-1.05-1.23-.62-1.64.73-.69,2.18-.5,4.06.55l.06-.06c.26-.24.6-.73-.41-1.28a4.18,4.18,0,0,0-1.5-.48l.16-.46a5.49,5.49,0,0,1,1.88.63c1.51.82,1.24,1.62.63,2.2l-1.14,1.08a4.17,4.17,0,0,0-.65.73Zm1.42-1.54c-1-.54-2.17-1.05-2.75-.49-.36.34-.14.71.31,1a2,2,0,0,0,1.69.17.64.64,0,0,0,.22-.14Z" transform="translate(-868.14 -644.83)"/><path class="cls-2" d="M980.64,812.61a9.74,9.74,0,0,0,.79-.81l.8.44-.45.51h0a3.22,3.22,0,0,1,2.23.36c.69.38,1.51,1.21.44,2.2l-1.84,1.73-.91-.51,1.78-1.66c.5-.46.62-1-.24-1.49a2.16,2.16,0,0,0-1.79-.13,1.26,1.26,0,0,0-.32.21l-1.84,1.73-.9-.49Z" transform="translate(-868.14 -644.83)"/><path class="cls-2" d="M984.56,817.26a2.88,2.88,0,0,0,1,.88c.66.37,1.18.35,1.44.11s.16-.53-.36-1c-.71-.68-.83-1.21-.45-1.55a2.41,2.41,0,0,1,2.66.1,3.34,3.34,0,0,1,1.06.87l-.65.26a2.39,2.39,0,0,0-.86-.74,1.13,1.13,0,0,0-1.27-.07c-.26.24-.07.51.43,1,.67.67.85,1.18.38,1.61s-1.63.48-2.82-.19a3.67,3.67,0,0,1-1.2-1Z" transform="translate(-868.14 -644.83)"/><path class="cls-2" d="M992.36,819.54l-.43.39-2.6-1.44.42-.39Z" transform="translate(-868.14 -644.83)"/><path class="cls-2" d="M991.93,821.35a3,3,0,0,0,1,.89c.68.38,1.21.36,1.48.12s.16-.54-.37-1.06c-.73-.7-.85-1.23-.46-1.58a2.5,2.5,0,0,1,2.73.13,3.32,3.32,0,0,1,1.08.88l-.67.26a2.41,2.41,0,0,0-.88-.76,1.21,1.21,0,0,0-1.3-.08c-.27.24-.08.52.44,1,.69.69.87,1.19.39,1.63s-1.67.47-2.89-.21a3.69,3.69,0,0,1-1.22-1Z" transform="translate(-868.14 -644.83)"/><path class="cls-2" d="M997.72,823.23c-.77.73-.28,1.48.67,2a6.44,6.44,0,0,0,1.62.65l-.26.47a7.78,7.78,0,0,1-1.94-.79c-1.61-.89-1.91-2-.94-2.88a3.7,3.7,0,0,1,4.21-.23c1.73.95,1.25,2,.64,2.58a2.65,2.65,0,0,1-.31.23Zm3.22,1.17c.39-.33.72-1-.36-1.6a2.38,2.38,0,0,0-2.43.06Z" transform="translate(-868.14 -644.83)"/><path class="cls-2" d="M1003.37,825.3a13,13,0,0,0,1-.94l.85.47-.61.59,0,0a2.75,2.75,0,0,1,2.21.17,2,2,0,0,1,.26.17l-.57.5a1.78,1.78,0,0,0-.32-.2,2.15,2.15,0,0,0-2.07,0,2.1,2.1,0,0,0-.33.22l-1.75,1.56-.95-.53Z" transform="translate(-868.14 -644.83)"/><path class="cls-2" d="M1010.11,826.17a.91.91,0,0,1-1,0c-.34-.19-.42-.47-.21-.66a.92.92,0,0,1,1,0C1010.25,825.7,1010.32,826,1010.11,826.17Zm-5.37,3.16,3.33-2.93,1,.54-3.34,2.93Z" transform="translate(-868.14 -644.83)"/><path class="cls-2" d="M1007.44,830.82l2.88-2.52-.76-.42.47-.41.76.42.16-.14a2.62,2.62,0,0,1,1.81-.69,3.68,3.68,0,0,1,1.65.45,3.45,3.45,0,0,1,.76.56l-.62.34a1.94,1.94,0,0,0-.56-.42,1.66,1.66,0,0,0-2,.28l-.18.16,1.32.72-.47.41-1.32-.73-2.9,2.53Z" transform="translate(-868.14 -644.83)"/><path class="cls-2" d="M1009.48,833.17a14.28,14.28,0,0,0,2.33-1.07l1.17.55a16.58,16.58,0,0,1-2.78.87Zm4.16-2.92a1,1,0,0,1,1.11,0c.41.23.49.53.23.75a1,1,0,0,1-1.11,0C1013.48,830.77,1013.39,830.46,1013.64,830.25Z" transform="translate(-868.14 -644.83)"/><path class="cls-2" d="M897.76,779.77l2-2.28-.52-.3.32-.37.53.3.11-.13a1.84,1.84,0,0,1,1.25-.69,2.13,2.13,0,0,1,1.66.68l-.42.33a1.22,1.22,0,0,0-.39-.31,1.06,1.06,0,0,0-1.41.36l-.13.14.92.52-.33.37-.91-.52-2,2.29Z" transform="translate(-868.14 -644.83)"/><path class="cls-2" d="M904.47,781.58a2.49,2.49,0,0,1-3.14.33c-1-.58-1.35-1.56-.61-2.4a2.47,2.47,0,0,1,3.13-.35C905,779.78,905.19,780.76,904.47,781.58Zm-3-1.69a1,1,0,0,0,.25,1.68,1.68,1.68,0,0,0,2.06-.38,1,1,0,0,0-.23-1.67A1.63,1.63,0,0,0,901.43,779.89Z" transform="translate(-868.14 -644.83)"/><path class="cls-2" d="M905.88,781.49c.24-.28.43-.51.61-.74l.62.35-.36.46h0a2.22,2.22,0,0,1,1.73.22,1.14,1.14,0,0,1,.35,1.92l-1.44,1.6-.7-.4,1.38-1.54c.39-.44.48-.93-.19-1.31a1.47,1.47,0,0,0-1.38,0,.79.79,0,0,0-.25.2l-1.43,1.6-.7-.39Z" transform="translate(-868.14 -644.83)"/><path class="cls-2" d="M912.5,783l-.7.77,1,.58-.33.37-1-.58-1.3,1.45c-.3.34-.34.6.06.83a2.49,2.49,0,0,0,.44.2l-.3.38a2.7,2.7,0,0,1-.69-.29,1.09,1.09,0,0,1-.58-.64c-.07-.26.07-.54.36-.86l1.32-1.46-.61-.34.34-.38.6.35.59-.65Z" transform="translate(-868.14 -644.83)"/><path class="cls-2" d="M914.34,786.72l-.33.36-2-1.14.33-.37Z" transform="translate(-868.14 -644.83)"/><path class="cls-2" d="M914,788.33a2.19,2.19,0,0,0,.77.74c.52.3.93.26,1.14,0s.12-.48-.29-.92-.65-1-.35-1.36a1.72,1.72,0,0,1,2.1,0,2.57,2.57,0,0,1,.83.72l-.51.26a1.82,1.82,0,0,0-.68-.62c-.43-.25-.82-.22-1,0s-.06.45.34.88c.53.58.67,1,.3,1.41s-1.28.5-2.23,0a2.79,2.79,0,0,1-.94-.82Z" transform="translate(-868.14 -644.83)"/><path class="cls-2" d="M920.91,787.75a.61.61,0,0,1-.75,0c-.25-.15-.31-.39-.16-.56a.63.63,0,0,1,.75-.05C921,787.34,921.07,787.57,920.91,787.75Zm-4,3,2.49-2.7.73.41-2.49,2.71Z" transform="translate(-868.14 -644.83)"/><path class="cls-2" d="M918.65,791.32l3.3-.55.92-.12h0l-2.21-1.25.37-.4,3.11,1.76-.3.3-3.28.55c-.31,0-.6.09-.91.12h0l2.37,1.36-.36.39-3.29-1.88Z" transform="translate(-868.14 -644.83)"/><path class="cls-2" d="M924,792.85c-.61.68-.22,1.32.53,1.75a4.12,4.12,0,0,0,1.27.51l-.21.43a5.43,5.43,0,0,1-1.52-.62c-1.26-.72-1.5-1.7-.74-2.52a2.7,2.7,0,0,1,3.31-.37c1.35.77,1,1.76.5,2.26a1.72,1.72,0,0,1-.25.21Zm2.53.9c.3-.31.56-.92-.29-1.4a1.7,1.7,0,0,0-1.9.16Z" transform="translate(-868.14 -644.83)"/><path class="cls-2" d="M928.58,794a.71.71,0,0,1,.86-.07c.3.17.36.43.17.65a.71.71,0,0,1-.85.05C928.46,794.41,928.4,794.14,928.58,794Zm-1.87,2a.68.68,0,0,1,.84-.06c.3.17.36.43.18.65a.71.71,0,0,1-.85.05C926.58,796.4,926.52,796.13,926.71,795.93Z" transform="translate(-868.14 -644.83)"/><path class="cls-2" d="M934.71,796h0l-1.32-.21.22-.46,1.66.27.66.37-3.54,3.68-.74-.42Z" transform="translate(-868.14 -644.83)"/><path class="cls-2" d="M936.52,799.07c.31-.32.57-.61.79-.88l.68.39-.49.55,0,0a2,2,0,0,1,1.78.08,1.15,1.15,0,0,1,.2.14l-.45.47a1.46,1.46,0,0,0-.26-.17,1.61,1.61,0,0,0-1.67.05l-.26.21-1.41,1.46-.76-.44Z" transform="translate(-868.14 -644.83)"/><path class="cls-2" d="M939.18,801.53c-.64.68-.24,1.35.55,1.8a4.83,4.83,0,0,0,1.34.54l-.22.44a6,6,0,0,1-1.6-.66c-1.33-.76-1.58-1.77-.78-2.59a2.87,2.87,0,0,1,3.48-.34c1.43.81,1,1.82.53,2.33a3.26,3.26,0,0,1-.25.22Zm2.66,1c.32-.32.59-.94-.3-1.44a1.81,1.81,0,0,0-2,.12Z" transform="translate(-868.14 -644.83)"/><path class="cls-2" d="M944,803.12a8.9,8.9,0,0,0,.7-.77l.71.4-.41.46,0,0a2.49,2.49,0,0,1,1.89.28c.61.34.84.83.71,1.26h0a3.25,3.25,0,0,1,.86-.08,2.69,2.69,0,0,1,1.18.37,1.16,1.16,0,0,1,.27,2l-1.63,1.62-.79-.45,1.56-1.56c.53-.54.54-1-.12-1.41a1.64,1.64,0,0,0-1.41-.08,1.21,1.21,0,0,0-.31.21l-1.7,1.71-.78-.45,1.64-1.65a.74.74,0,0,0-.17-1.29,1.71,1.71,0,0,0-1.49-.06,1.13,1.13,0,0,0-.31.21l-1.64,1.66-.77-.44Z" transform="translate(-868.14 -644.83)"/><path class="cls-2" d="M948.37,809.9a12.08,12.08,0,0,0,1.92-1l1,.46a12.75,12.75,0,0,1-2.28.88Zm3.42-2.79a.79.79,0,0,1,.92-.05c.33.19.4.46.18.68a.77.77,0,0,1-.91,0C951.66,807.6,951.59,807.31,951.79,807.11Z" transform="translate(-868.14 -644.83)"/><path class="cls-2" d="M894.71,787.68a3.78,3.78,0,0,1-1.19-.48c-1.1-.65-1.35-1.6-.66-2.4a2.48,2.48,0,0,1,3.19-.22,2.77,2.77,0,0,1,.82.68l-.48.27a2,2,0,0,0-.67-.58,1.67,1.67,0,0,0-2.17.23c-.52.6-.3,1.29.43,1.72a3.31,3.31,0,0,0,.93.36Z" transform="translate(-868.14 -644.83)"/><path class="cls-2" d="M899.92,788.88a2.42,2.42,0,0,1-3.09.28c-1-.59-1.32-1.56-.6-2.38a2.4,2.4,0,0,1,3.08-.31C900.39,787.1,900.63,788.08,899.92,788.88Zm-3-1.72a1,1,0,0,0,.24,1.67,1.65,1.65,0,0,0,2-.35,1,1,0,0,0-.23-1.66A1.6,1.6,0,0,0,896.93,787.16Z" transform="translate(-868.14 -644.83)"/><path class="cls-2" d="M903,786.86l.7.41-3.45,3.85-.68-.41Z" transform="translate(-868.14 -644.83)"/><path class="cls-2" d="M906.09,792.5a2.49,2.49,0,0,1-3.16.27c-1-.6-1.36-1.59-.61-2.42a2.48,2.48,0,0,1,3.14-.29C906.57,790.71,906.82,791.7,906.09,792.5ZM903,790.75a1,1,0,0,0,.25,1.69,1.69,1.69,0,0,0,2.08-.34,1,1,0,0,0-.24-1.69A1.64,1.64,0,0,0,903,790.75Z" transform="translate(-868.14 -644.83)"/><path class="cls-2" d="M907.4,792.55c.29-.31.52-.58.72-.84l.62.36-.45.53,0,0a1.71,1.71,0,0,1,1.6,0,1,1,0,0,1,.19.13l-.41.46a1.52,1.52,0,0,0-.23-.16,1.39,1.39,0,0,0-1.51.06,1.46,1.46,0,0,0-.23.21l-1.28,1.4-.69-.41Z" transform="translate(-868.14 -644.83)"/><path class="cls-2" d="M910.28,793.64a.65.65,0,0,1,.8-.06c.29.17.34.42.17.63a.64.64,0,0,1-.8,0C910.17,794.1,910.11,793.83,910.28,793.64Zm-1.75,1.93a.62.62,0,0,1,.79-.06c.28.16.34.42.16.62a.62.62,0,0,1-.79,0C908.41,796,908.35,795.76,908.53,795.57Z" transform="translate(-868.14 -644.83)"/><path class="cls-2" d="M912,798l1.2-.95-.67-.39.3-.32.74.43.89-.7-.7-.41.3-.32.78.45,1.18-.93.48.28-1.18.93.85.5,1.2-.92.48.28-1.18.93.68.4-.31.32-.75-.44-.88.71.7.42-.3.32-.78-.46-1.21,1-.49-.29,1.21-1-.85-.5-1.2,1Zm2.91-.44.9-.7-.86-.5-.89.7Z" transform="translate(-868.14 -644.83)"/><path class="cls-2" d="M915.65,800.21l.28-.3.91,0c2.18-.06,3.24-.15,3.76-.69.34-.36.39-.85-.42-1.33a3,3,0,0,0-1.44-.36l.09-.48a3.9,3.9,0,0,1,1.88.53c1.17.68,1.17,1.5.68,2-.62.67-1.85.77-3.67.83H917l2.42,1.43-.38.4Z" transform="translate(-868.14 -644.83)"/><path class="cls-2" d="M919.9,802.72l.28-.29.93,0c2.22,0,3.29-.14,3.82-.68.34-.36.39-.86-.43-1.34A3.14,3.14,0,0,0,923,800l.09-.48a4,4,0,0,1,1.91.54c1.19.7,1.18,1.52.69,2s-1.88.77-3.72.81h-.7l2.46,1.45-.38.4Z" transform="translate(-868.14 -644.83)"/><path class="cls-2" d="M924.22,805.28l.28-.3.94,0c2.26,0,3.35-.13,3.88-.67.35-.37.4-.87-.43-1.35a3.15,3.15,0,0,0-1.48-.39l.09-.48a4,4,0,0,1,1.93.55c1.21.7,1.21,1.54.71,2-.64.67-1.91.77-3.79.81h-.7l2.49,1.47-.38.41Z" transform="translate(-868.14 -644.83)"/><path class="cls-2" d="M929.41,806.92a2.06,2.06,0,0,1,2.05-.31v0c-.44-.56-.41-1-.11-1.34a2.3,2.3,0,0,1,2.69.06c1.11.64,1.23,1.4.79,1.86a1.86,1.86,0,0,1-1.76.3h0c.54.6.66,1.17.24,1.61-.62.63-1.87.55-2.95-.09S928.91,807.44,929.41,806.92Zm3.06,1.76c.43-.44.15-.93-.48-1.52a1.64,1.64,0,0,0-1.74.15c-.38.35-.25.92.46,1.35A1.47,1.47,0,0,0,932.47,808.68Zm-.35-3c-.35.36-.12.8.43,1.3a1.5,1.5,0,0,0,1.5-.15c.29-.29.31-.75-.38-1.16A1.28,1.28,0,0,0,932.12,805.64Z" transform="translate(-868.14 -644.83)"/><path class="cls-2" d="M933.78,810.05a3.18,3.18,0,0,0,1,1c1,.59,1.7.37,2,.07.49-.52,0-1.16-.77-1.6l-.44-.25.36-.37.44.25c.56.33,1.46.57,1.89.14s.24-.72-.48-1.14a3.55,3.55,0,0,0-1.38-.43l.14-.48a4.87,4.87,0,0,1,1.79.6c1.14.66,1.23,1.39.8,1.83a1.86,1.86,0,0,1-1.91.23v0c.62.5.86,1.18.36,1.68s-1.78.66-3.16-.15a3.89,3.89,0,0,1-1.24-1.12Z" transform="translate(-868.14 -644.83)"/><path class="cls-2" d="M942.43,811h0l-1.36-.25.22-.46,1.71.32.68.39L940,814.63l-.76-.45Z" transform="translate(-868.14 -644.83)"/><path class="cls-2" d="M941.22,816.42a11.45,11.45,0,0,0,1.88-1l.93.46a11.64,11.64,0,0,1-2.22.84Zm3.34-2.71a.76.76,0,0,1,.9,0c.32.19.39.46.18.67a.75.75,0,0,1-.89,0C944.43,814.18,944.37,813.91,944.56,813.71Z" transform="translate(-868.14 -644.83)"/><path class="cls-2" d="M888,790.87c.28-.32.5-.6.69-.85l.59.36-.35.45h0a2.15,2.15,0,0,1,1.73.28,1.37,1.37,0,0,1,.39,2.23,2.19,2.19,0,0,1-2.85.37,1.35,1.35,0,0,1-.75-1.07h0L886.19,794l-.64-.4Zm0,1.08a1.21,1.21,0,0,0-.14.2,1,1,0,0,0,.51,1.14,1.47,1.47,0,0,0,2-.32,1,1,0,0,0-.24-1.6,1.47,1.47,0,0,0-1.5,0,.78.78,0,0,0-.21.16Z" transform="translate(-868.14 -644.83)"/><path class="cls-2" d="M892.72,796.4l.23-.35h0a2.15,2.15,0,0,1-1.46-.31c-.73-.44-.79-1-.46-1.41.54-.61,1.63-.48,3,.39l.05-.06c.19-.21.44-.64-.31-1.1a3,3,0,0,0-1.12-.38l.12-.4a3.65,3.65,0,0,1,1.4.5c1.13.68.93,1.38.47,1.9l-.85,1a4.09,4.09,0,0,0-.49.65Zm1.06-1.36c-.72-.45-1.62-.86-2.06-.37-.27.3-.11.62.23.83a1.32,1.32,0,0,0,1.26.11.59.59,0,0,0,.17-.13Z" transform="translate(-868.14 -644.83)"/><path class="cls-2" d="M901,795.56l-2.81,3.12c-.21.23-.43.49-.57.68L897,799l.37-.46h0a2.1,2.1,0,0,1-1.72-.27,1.4,1.4,0,0,1-.41-2.26,2.29,2.29,0,0,1,2.9-.38c.57.35.79.77.77,1.08h0l1.39-1.55Zm-2.71,1.85a.83.83,0,0,0,.14-.22.9.9,0,0,0-.49-1.13,1.54,1.54,0,0,0-2,.32,1,1,0,0,0,.24,1.61,1.45,1.45,0,0,0,1.49,0,.91.91,0,0,0,.21-.18Z" transform="translate(-868.14 -644.83)"/><path class="cls-2" d="M905.39,798.22l-2.86,3.13c-.21.23-.44.49-.58.68l-.61-.37.37-.47h0a2.13,2.13,0,0,1-1.75-.28,1.4,1.4,0,0,1-.42-2.28,2.33,2.33,0,0,1,3-.36c.58.35.8.77.78,1.08h0l1.41-1.55Zm-2.76,1.85a1,1,0,0,0,.14-.22c.18-.36,0-.83-.49-1.15a1.6,1.6,0,0,0-2,.32,1,1,0,0,0,.25,1.63,1.51,1.51,0,0,0,1.51.05,1.24,1.24,0,0,0,.22-.18Z" transform="translate(-868.14 -644.83)"/><path class="cls-2" d="M906.88,799.87a.56.56,0,0,1-.71,0c-.24-.15-.3-.38-.15-.54a.57.57,0,0,1,.71,0C907,799.47,907,799.7,906.88,799.87Zm-3.81,2.84,2.37-2.58.69.42-2.37,2.58Z" transform="translate(-868.14 -644.83)"/><path class="cls-2" d="M906.65,802a8.41,8.41,0,0,0,.61-.72l.63.38-.36.45h0a2.24,2.24,0,0,1,1.73.28,1.16,1.16,0,0,1,.35,1.94l-1.44,1.55-.7-.43,1.38-1.49a.76.76,0,0,0-.18-1.32,1.48,1.48,0,0,0-1.39-.08.91.91,0,0,0-.26.19l-1.43,1.55-.7-.42Z" transform="translate(-868.14 -644.83)"/><path class="cls-2" d="M915.16,806c-.19.18-.4.38-.7.7L913,808.2a2.2,2.2,0,0,1-1.67.84,3.44,3.44,0,0,1-1.71-.56,3.27,3.27,0,0,1-1.09-1l.51-.25a2.67,2.67,0,0,0,.95.9,1.56,1.56,0,0,0,2.11-.13l.27-.29h0a2.2,2.2,0,0,1-1.65-.32,1.41,1.41,0,0,1-.48-2.28,2.47,2.47,0,0,1,3.06-.31c.68.41.84.87.8,1.19h0l.4-.37Zm-1.71.58a.67.67,0,0,0,.16-.24.93.93,0,0,0-.53-1.11,1.65,1.65,0,0,0-2.09.28,1,1,0,0,0,.29,1.64,1.57,1.57,0,0,0,1.44.11A.9.9,0,0,0,913,807Z" transform="translate(-868.14 -644.83)"/><path class="cls-2" d="M915.75,807a.65.65,0,0,1,.82,0c.29.17.35.43.16.63a.65.65,0,0,1-.81,0C915.63,807.47,915.58,807.21,915.75,807Zm-1.79,1.9a.65.65,0,0,1,.81,0c.29.18.34.43.16.63a.63.63,0,0,1-.8,0C913.84,809.37,913.78,809.11,914,808.92Z" transform="translate(-868.14 -644.83)"/><path class="cls-2" d="M917.09,811.26l.27-.29.92,0c2.2,0,3.26-.08,3.78-.61.35-.36.39-.85-.42-1.34a3.15,3.15,0,0,0-1.44-.4l.08-.48a4,4,0,0,1,1.89.57c1.18.71,1.18,1.53.69,2s-1.86.73-3.69.75h-.68v0l2.44,1.48-.38.39Z" transform="translate(-868.14 -644.83)"/><path class="cls-2" d="M926.76,814.29A2.84,2.84,0,0,1,923,815c-1.07-.65-1.18-1.74-.07-2.91a2.91,2.91,0,0,1,3.7-.68C927.84,812.09,927.86,813.16,926.76,814.29Zm-3-1.76c-.89.91-1,1.7-.28,2.11s1.68.11,2.56-.79,1-1.65.27-2.12S924.64,811.56,923.71,812.53Z" transform="translate(-868.14 -644.83)"/><path class="cls-2" d="M927.67,814.88c.33-.33.57-.62.8-.88l.68.41-.41.48h0a2.67,2.67,0,0,1,2,.38,1.44,1.44,0,0,1,.45,2.41,2.63,2.63,0,0,1-3.29.26,1.57,1.57,0,0,1-.87-1.19h0l-1.39,1.43-.74-.46Zm.06,1.16a1,1,0,0,0-.16.21c-.19.42,0,.92.58,1.25a1.77,1.77,0,0,0,2.27-.25,1,1,0,0,0-.28-1.73,1.84,1.84,0,0,0-1.73-.1,1,1,0,0,0-.24.17Z" transform="translate(-868.14 -644.83)"/><path class="cls-2" d="M933.68,817.14l0,.93c0,.25,0,.46,0,.69l0,0,.85-.18,1.16-.21.84.51-2.73.4.14,2.27-.88-.53,0-1c0-.26,0-.49,0-.74h0c-.29.08-.58.13-.9.19l-1.19.22-.84-.51,2.82-.44-.15-2.16Z" transform="translate(-868.14 -644.83)"/><path class="cls-2" d="M933.59,822.4a12,12,0,0,0,1.83-1l.91.46a11.68,11.68,0,0,1-2.17.81Zm3.26-2.65a.73.73,0,0,1,.87,0c.32.19.38.46.17.66a.71.71,0,0,1-.86,0C936.72,820.22,936.66,819.94,936.85,819.75Z" transform="translate(-868.14 -644.83)"/><path class="cls-2" d="M882.6,797c.23-.26.41-.48.57-.7l.56.35-.33.43h0a1.8,1.8,0,0,1,1.51.23,1,1,0,0,1,.57,1.13h0a1.86,1.86,0,0,1,.69-.08,1.93,1.93,0,0,1,.95.31,1.09,1.09,0,0,1,.21,1.82l-1.3,1.48-.64-.4,1.25-1.42c.43-.48.44-.92-.09-1.25a1.18,1.18,0,0,0-1.13-.06.76.76,0,0,0-.25.19l-1.36,1.55-.63-.4,1.31-1.5a.68.68,0,0,0-.13-1.14,1.23,1.23,0,0,0-1.2,0,.63.63,0,0,0-.24.19l-1.32,1.5-.62-.39Z" transform="translate(-868.14 -644.83)"/><path class="cls-2" d="M889.12,803.9l.23-.34,0,0a2.1,2.1,0,0,1-1.44-.32c-.73-.45-.78-1-.46-1.4.54-.61,1.61-.46,3,.42l.05,0c.19-.21.44-.64-.3-1.1a2.87,2.87,0,0,0-1.11-.4l.12-.39a3.64,3.64,0,0,1,1.39.51c1.11.69.91,1.39.46,1.89l-.85.94a3.46,3.46,0,0,0-.47.64Zm1-1.34c-.71-.46-1.6-.87-2-.39-.26.3-.1.61.23.82a1.29,1.29,0,0,0,1.25.13.66.66,0,0,0,.17-.12Z" transform="translate(-868.14 -644.83)"/><path class="cls-2" d="M892.28,803.18c.26-.3.48-.56.67-.8l.59.36-.43.51,0,0a1.58,1.58,0,0,1,1.52.08.64.64,0,0,1,.18.13l-.39.43-.22-.16a1.28,1.28,0,0,0-1.43,0,1.24,1.24,0,0,0-.22.19l-1.2,1.34-.66-.41Z" transform="translate(-868.14 -644.83)"/><path class="cls-2" d="M898.62,805.89a8.76,8.76,0,0,0-.67.68L896.61,808a2,2,0,0,1-1.58.82,3.19,3.19,0,0,1-1.61-.54,3.15,3.15,0,0,1-1-1l.48-.24a2.67,2.67,0,0,0,.9.87,1.44,1.44,0,0,0,2-.13l.25-.28h0a2,2,0,0,1-1.56-.31A1.39,1.39,0,0,1,894,805a2.29,2.29,0,0,1,2.89-.31c.64.4.79.85.76,1.16h0l.38-.36Zm-1.62.56a.6.6,0,0,0,.15-.23.93.93,0,0,0-.5-1.08,1.51,1.51,0,0,0-2,.28A1,1,0,0,0,895,807a1.44,1.44,0,0,0,1.36.12,1.28,1.28,0,0,0,.28-.21Z" transform="translate(-868.14 -644.83)"/><path class="cls-2" d="M901.09,806.3a.55.55,0,0,1-.7,0c-.24-.14-.29-.38-.15-.53a.55.55,0,0,1,.69,0C901.19,805.91,901.24,806.14,901.09,806.3Zm-3.74,2.77,2.32-2.53.68.43L898,809.5Z" transform="translate(-868.14 -644.83)"/><path class="cls-2" d="M900.86,808.36a8.43,8.43,0,0,0,.6-.71l.61.38-.35.45h0a2.15,2.15,0,0,1,1.7.3,1.16,1.16,0,0,1,.34,1.92l-1.41,1.51-.69-.43,1.36-1.46a.75.75,0,0,0-.19-1.3,1.42,1.42,0,0,0-1.36-.1,1,1,0,0,0-.24.18l-1.41,1.53-.68-.43Z" transform="translate(-868.14 -644.83)"/><path class="cls-2" d="M905.31,810.7a.62.62,0,0,1,.78,0c.28.17.34.42.16.62a.61.61,0,0,1-.78,0C905.19,811.15,905.14,810.89,905.31,810.7Zm-1.73,1.86a.61.61,0,0,1,.78,0c.28.18.33.43.16.63a.61.61,0,0,1-.78,0C903.47,813,903.41,812.74,903.58,812.56Z" transform="translate(-868.14 -644.83)"/><path class="cls-2" d="M911.71,815.29a2.64,2.64,0,0,1-3.53.67c-1-.64-1.11-1.69-.06-2.83a2.71,2.71,0,0,1,3.5-.66C912.74,813.16,912.76,814.2,911.71,815.29Zm-2.89-1.72c-.84.89-.9,1.66-.26,2.06s1.59.12,2.42-.76,1-1.61.26-2.07S909.7,812.64,908.82,813.57Z" transform="translate(-868.14 -644.83)"/><path class="cls-2" d="M909.87,818a11.37,11.37,0,0,0,1.68-1l.83.44a11.18,11.18,0,0,1-2,.79Zm3-2.56a.64.64,0,0,1,.8,0c.29.19.35.44.16.64a.64.64,0,0,1-.8,0C912.74,815.85,912.68,815.58,912.86,815.4Z" transform="translate(-868.14 -644.83)"/></svg>